<svg width="600" height="255" viewBox="0 0 600 255" fill="none" xmlns="http://www.w3.org/2000/svg">
<path d="M118.819 53.4219L41.3744 160.622H118.819V53.4219ZM118.819 192.319H0V164.183L119.172 0H157.364V160.622H189.544V192.319H157.364V249.658H118.819V192.319Z" fill="#C65B21"/>
<path d="M529.275 53.4219L451.83 160.622H529.275V53.4219ZM529.275 192.319H410.456V164.183L529.628 0H567.82V160.622H600V192.319H567.82V249.658H529.275V192.319Z" fill="#C65B21"/>
<path d="M299.354 255C348.179 255 387.76 197.996 387.76 127.678C387.76 57.3598 348.179 0.355787 299.354 0.355787C250.528 0.355787 210.947 57.3598 210.947 127.678C210.947 197.996 250.528 255 299.354 255Z" fill="#80C7DB"/>
<path d="M387.655 121.445C387.724 123.51 387.76 125.588 387.76 127.678C387.76 197.996 348.179 255 299.354 255C250.528 255 210.947 197.996 210.947 127.678C210.947 125.588 210.983 123.51 211.052 121.445H387.655Z" fill="#1491B3"/>
<path d="M324.107 105.419C343.638 105.419 359.47 89.4736 359.47 69.8042C359.47 50.1348 343.638 34.1896 324.107 34.1896C304.577 34.1896 288.745 50.1348 288.745 69.8042C288.745 89.4736 304.577 105.419 324.107 105.419Z" fill="#EEC460"/>
</svg>
