<svg width="726" height="746" viewBox="0 0 726 746" fill="none" xmlns="http://www.w3.org/2000/svg">
<path d="M368.548 127.419C379.871 127.013 394.559 128.111 405.667 130.246C418.087 132.632 421.601 135.381 430.133 144.822C439.903 155.628 446.882 168.734 454.558 181.123C449.083 193.874 448.659 199.787 439.139 211.717C434.453 217.587 421.643 224.936 433.091 231.247C435.832 232.76 441.191 232.734 441.756 234.48C443.085 238.647 440.859 248.122 440.933 253.24C441.191 272.778 447.106 285.91 465.973 291.252C474.854 293.768 484.291 292.281 491.627 299.413C494.568 302.275 499.27 312.83 498.016 316.79C497.983 316.902 496.736 317.403 496.421 318.389C487.648 345.353 474.497 374.746 461.37 399.722C454.649 412.508 448.51 419.744 440.983 430.792C432.642 432.15 424.941 436.1 416.725 438.054C381.408 446.44 351.899 440.829 320.546 422.804C308.109 415.655 297.675 404.987 285.255 397.82C287.082 392.339 288.619 381.507 288.868 375.671C289.01 372.421 287.763 363.075 288.096 361.761C288.81 358.96 295.099 356.384 295.938 349.995C296.993 341.921 283.203 327.155 279.074 319.928C273.067 309.415 274.679 297.459 270.533 285.477C266.944 275.095 264.793 273.037 258.088 265.922C257.831 265.645 257.673 263.769 256.344 262.585C248.609 255.669 232.268 249.911 222.265 247.136C177.171 234.618 120.146 272.363 116.798 321.942C114.813 351.309 132.766 399.8 148.526 424.213C155.778 435.443 163.089 443.717 172.975 452.483C185.337 463.445 199.136 471.303 211.839 481.297C222.49 489.683 229.443 498.665 231.827 512.782C218.045 504.172 198.015 490.824 183.161 485.697C180.17 484.668 173.515 482.04 172.195 487.063C170.641 492.976 176.34 496.019 179.264 499.443C179.937 500.23 181.956 500.532 179.023 500.385C165.798 493.806 153.436 485.282 140.409 478.366C135.832 475.937 121.609 466.808 118.202 474.147C113.999 483.207 135.474 494.256 139.936 500.532L152.156 509.004C138.656 504.526 126.377 495.466 113.841 489.06C107.959 486.052 95.3479 478.695 93.3042 489.224C92.5315 488.126 88.3694 486.052 86.9654 484.513C55.936 450.477 28.6949 403.604 31.694 354.923C35.6318 291.174 81.665 234.195 129.767 198.819C163.986 173.662 204.37 161.152 244.505 150.035C248.21 184.762 301.164 191.246 321.136 169.478C322.614 167.87 324.484 163.167 325.074 162.743C327.358 161.092 338.823 161.36 343.683 159.501C356.66 154.53 364.128 142.54 364.917 128.362C366.072 128.267 367.443 127.463 368.54 127.419H368.548Z" fill="#F1EFEB"/>
<path d="M220.961 597.572C228.081 599.482 236.804 605.845 243.89 609.044C292.424 630.942 329.751 622.202 378.035 606.035C380.544 605.197 383.103 604.41 385.745 604.168L415.62 666.352C411.017 674.305 403.391 679.51 396.603 685.198C381.516 697.829 363.92 710.07 345.186 716.018C335.059 719.234 324.093 719.813 313.999 723.141C305.55 725.925 297.101 731.752 288.852 734.665C222.041 758.24 156.518 744.884 104.137 696.056C89.5157 682.423 79.696 666.049 58.4199 662.6C54.3408 661.934 47.7527 664.545 47.0549 658.407C44.8949 639.293 51.35 618.182 54.3491 599.465C67.9738 599.033 84.5394 591.2 93.2625 580.126C99.7924 571.835 101.595 561.807 105.957 552.349C124.932 567.712 177.935 588.451 201.919 594.287C208.25 595.825 215.012 595.981 220.944 597.572H220.961Z" fill="#F1EFEB"/>
<path d="M506.174 122.708C511.391 121.281 526.977 120.036 532.85 119.846C565.466 118.791 596.562 137.421 613.402 166.123C624.742 185.462 624.725 205.856 642.471 221.607C661.387 238.405 680.67 236.027 690.681 264.72C697.177 283.35 692.01 310.176 701.381 326.135C706.324 334.564 715.529 340.978 720.032 349.122C726.429 360.689 727.027 376.484 724.884 389.391C722.732 402.35 706.631 420.176 694.502 423.262C693.987 423.392 693.256 423.158 692.691 423.262C668.208 427.697 632.659 413.018 617.539 392.175C603.723 373.129 600.234 353.073 581.75 336.613C577.546 332.869 571.938 329.826 567.743 326.221C559.925 319.504 545.661 304.107 541.307 294.84C539.613 291.235 538.815 286.54 536.954 282.884C540.551 282.391 543.816 271.636 544.082 268.161C544.348 264.686 543.467 255.582 541.482 252.729C546.059 244.275 550.388 239.511 548.519 228.921C546.865 219.584 535.791 214.778 527.974 219.351C524.825 221.192 520.962 228.195 516.55 225.463C513.967 223.872 507.03 211.925 503.923 208.424C499.029 202.917 492.508 198.629 487.581 193.39C478.501 183.733 467.053 165.795 470.858 151.902C473.134 143.585 484.566 133.03 491.976 129.122C494.377 127.86 504.13 123.252 506.166 122.69L506.174 122.708Z" fill="#F1EFEB"/>
<path d="M364.926 47.3391C365.773 56.0533 366.87 66.1767 368.988 74.6748C370.899 82.3171 380.228 99.2355 380.37 104.397C380.602 112.843 371.746 110.88 366.737 111.416C359.866 112.151 341.323 120.304 340.634 128.084C340.102 134.084 353.336 128.879 356.435 128.49C359.268 128.136 362.126 128.603 364.934 128.378C364.145 142.547 356.676 154.547 343.699 159.518C338.831 161.385 327.366 161.117 325.09 162.759C324.5 163.183 322.631 167.886 321.152 169.494C301.18 191.262 248.219 184.778 244.522 150.051C243.957 144.769 245.219 138.225 244.522 133.09C253.029 134.784 267.609 125.888 269.711 117.295C270.533 113.923 262.533 103.255 261.81 97.6794C260.115 84.6253 268.514 76.6113 281.001 79.5852C289.142 81.5217 294.493 99.8666 304.279 87.3917C312.462 76.9571 313.891 59.1396 310.693 46.5005C312.255 45.8954 313.833 45.368 315.553 45.4285C327.209 45.8435 339.188 48.0826 350.869 48.3333C354.965 48.4197 361.088 48.5235 364.942 47.3564L364.926 47.3391Z" fill="#F1EFEB"/>
<path d="M364.926 47.3391C361.079 48.5148 354.948 48.412 350.852 48.3169C339.172 48.0662 327.192 45.8271 315.536 45.4122C313.825 45.3517 312.238 45.879 310.676 46.4842C313.866 59.1233 312.437 76.9408 304.263 87.3754C294.484 99.8502 289.126 81.5054 280.984 79.5689C268.498 76.595 260.099 84.6089 261.793 97.663C262.516 103.239 270.517 113.907 269.694 117.279C267.601 125.872 253.012 134.768 244.505 133.073C244.247 131.163 243.093 126.356 242.586 123.287C237.751 94.0753 219.225 57.0052 244.031 32.2371C245.735 30.5427 248.634 29.3842 249.656 28.1998C253.253 24.0589 252.356 18.0765 259.6 12.6301C274.67 1.30501 310.344 7.25282 329.153 5.86097C343.168 4.82356 355.513 -3.88203 369.944 2.05713C380.112 6.24135 384 20.1253 380.76 30.3525C379.016 35.8594 370.243 45.6975 364.926 47.3227L364.926 47.3391Z" fill="#F1EFEB"/>
<path d="M86.9654 484.513C88.3694 486.052 92.5232 488.126 93.3042 489.224C94.7746 491.299 94.9906 495.085 97.7986 498.215C102.335 503.281 116.101 512.237 122.282 516.551L120.47 519.378C114.697 516.136 97.5494 503.852 91.5262 506.67C83.6422 510.353 92.9635 520.044 96.461 523.173C101.371 527.574 109.396 532.562 115.045 536.34L113.234 539.167C108.499 536.703 101.986 531.948 96.6854 532.761C92.5232 533.4 93.0632 537.896 94.7496 540.973C95.7964 542.884 103.955 550.708 105.99 552.359C101.628 561.817 99.8257 571.845 93.2958 580.136C84.5727 591.21 68.007 599.042 54.3823 599.475C47.9688 599.682 25.0228 597.037 20.8689 592.412C19.98 591.426 19.8886 591.158 20.088 589.792C20.2625 588.599 27.5733 578.113 29.0188 575.441C31.237 571.335 33.8041 566.667 35.3825 562.284C43.7152 539.193 35.0087 523.26 53.0116 502.425C62.2498 491.722 73.54 486.994 86.9736 484.538L86.9654 484.513Z" fill="#F1EFEB"/>
<path d="M506.174 122.706C504.13 123.268 494.385 127.868 491.984 129.138C484.574 133.046 473.142 143.602 470.866 151.918C463.863 159.803 458.787 171.3 454.566 181.13C446.89 168.75 439.92 155.636 430.141 144.829C421.601 135.389 418.095 132.64 405.675 130.254C418.602 108.831 445.203 109.445 466.671 112.471C479.838 114.329 493.48 118.73 506.174 122.715V122.706Z" fill="#F1EFEB"/>
<path d="M366.737 111.408C371.04 116.241 372.768 121.774 368.548 127.428C367.451 127.471 366.081 128.275 364.926 128.37C362.118 128.595 359.26 128.128 356.427 128.482C353.336 128.871 340.094 134.076 340.626 128.076C341.315 120.304 359.866 112.143 366.729 111.408H366.737Z" fill="#F1EFEB"/>
<path d="M285.246 397.828C282.937 404.745 279.24 409.491 272.909 412.784C262.192 418.369 255.903 415.387 245.361 417.09C227.682 419.951 217.845 433.489 216.433 451.532C203.124 459.563 187.19 455.543 172.975 452.474C163.097 443.708 155.787 435.443 148.526 424.205C153.901 421.369 158.669 415.681 160.24 409.543C161.054 406.387 160.763 401.805 161.66 399.713C162.175 398.503 167.102 395.079 168.821 393.03C172.394 388.751 177.304 380.469 179.314 375.213H180.22C178.915 382.285 178.018 394.12 187.314 395.442C204.005 397.811 198.422 371.85 193.612 362.66C190.546 356.79 186.509 356.643 183.833 362.972C183.435 363.309 182.114 363.689 182.022 363.914C174.57 359.367 168.074 350.549 169.561 341.056C171.463 328.945 185.52 322.175 195.016 329.187C197.616 331.106 198.023 334.936 201.404 334.719C206.721 334.382 229.725 317.118 234.544 312.579C247.953 299.975 252.015 282.849 258.071 265.931C264.776 273.045 266.928 275.103 270.516 285.486C274.662 297.468 273.05 309.424 279.057 319.936C283.186 327.164 296.977 341.929 295.922 350.004C295.082 356.393 288.794 358.978 288.079 361.77C287.747 363.084 288.985 372.429 288.852 375.68C288.602 381.515 287.065 392.347 285.238 397.828H285.246ZM245.178 339.647C241.747 339.863 237.219 342.318 234.968 345.042C223.495 358.917 241.099 377.953 255.305 368.089C268.273 359.081 260.182 338.688 245.178 339.656V339.647Z" fill="#F1EFEB"/>
<path d="M258.088 265.921C252.032 282.839 247.969 299.965 234.561 312.569C229.734 317.108 206.738 334.364 201.421 334.709C198.048 334.926 197.641 331.104 195.032 329.177C185.537 322.157 171.48 328.935 169.578 341.046C168.082 350.539 174.579 359.357 182.039 363.904C181.067 366.428 180.71 371.572 179.323 375.212C177.32 380.468 172.41 388.759 168.83 393.029C167.11 395.078 162.184 398.502 161.669 399.712C160.78 401.804 161.062 406.386 160.248 409.541C158.678 415.671 153.909 421.368 148.534 424.203C132.766 399.798 114.821 351.308 116.807 321.932C120.155 272.353 177.179 234.608 222.274 247.126C232.268 249.901 248.617 255.65 256.352 262.575C257.681 263.768 257.839 265.644 258.097 265.912L258.088 265.921Z" fill="#F1EFEB"/>
<path d="M93.304 489.215C95.3477 478.685 107.959 486.042 113.841 489.05C126.369 495.456 138.648 504.516 152.156 508.995L139.935 500.522C135.474 494.246 114.007 483.198 118.202 474.138C121.6 466.807 135.831 475.927 140.409 478.356C153.435 485.273 165.797 493.797 179.023 500.375C181.964 500.522 179.945 500.22 179.264 499.433C176.34 496.01 170.641 492.967 172.194 487.053C173.515 482.031 180.17 484.65 183.161 485.687C198.015 490.814 218.045 504.153 231.827 512.772C234.361 514.355 238.773 519.274 240.883 520.311L237.9 540.29C233.904 559.914 228.363 579.071 220.961 597.572C215.029 595.981 208.267 595.826 201.936 594.287C177.952 588.451 124.948 567.712 105.973 552.35C103.938 550.707 95.788 542.883 94.7329 540.964C93.0382 537.878 92.4982 533.382 96.6687 532.751C101.969 531.939 108.482 536.693 113.218 539.157C120.703 543.048 128.005 547.915 135.856 551.407C136.546 551.71 139.03 554.554 140.376 553.283C142.07 551.693 138.498 551.018 137.667 550.465C130.298 545.555 122.248 541.163 115.029 536.33C109.379 532.552 101.354 527.556 96.4444 523.164C92.9551 520.034 83.6255 510.352 91.5096 506.66C97.5327 503.842 114.688 516.135 120.454 519.369C125.58 522.247 130.639 525.109 135.848 527.849C138.855 529.431 142.021 532.708 145.809 532.552C144.305 529.302 140.318 528.679 137.659 526.907C132.6 523.536 127.108 519.922 122.265 516.542C116.084 512.228 102.318 503.271 97.7819 498.205C94.9822 495.076 94.7662 491.289 93.2874 489.215H93.304Z" fill="#F1EFEB"/>
<path d="M541.482 252.729C539.937 250.516 536.181 250.343 533.963 251.743C527.201 256.005 527.467 284.18 536.954 282.884C538.815 286.549 539.613 291.235 541.307 294.84C545.661 304.107 559.925 319.504 567.743 326.221C543.376 333.077 518.37 335.116 498.024 316.797C499.279 312.838 494.576 302.282 491.635 299.421C484.3 292.289 474.854 293.776 465.981 291.26C447.114 285.909 441.207 272.785 440.941 253.248C440.875 248.13 443.101 238.655 441.764 234.488C441.207 232.741 435.849 232.767 433.099 231.254C421.651 224.944 434.461 217.595 439.147 211.725C448.668 199.795 449.083 193.881 454.566 181.13C458.787 171.309 463.854 159.811 470.866 151.918C467.061 165.811 478.509 183.75 487.59 193.406C492.516 198.637 499.038 202.925 503.931 208.44C507.038 211.941 513.975 223.88 516.559 225.48C520.97 228.203 524.833 221.209 527.982 219.367C535.799 214.794 546.873 219.592 548.527 228.938C550.404 239.528 546.076 244.291 541.49 252.746L541.482 252.729Z" fill="#F1EFEB"/>
<path d="M216.433 451.532C232.043 472.911 240.983 499.278 252.647 523.138C250.113 522.257 243.068 521.392 240.875 520.311C238.681 519.231 234.353 514.355 231.819 512.773C229.427 498.656 222.481 489.673 211.831 481.288C199.136 471.294 185.329 463.435 172.967 452.474C187.182 455.543 203.116 459.562 216.425 451.531L216.433 451.532Z" fill="#F1EFEB"/>
<path d="M692.683 423.27C691.952 431.466 690.44 439.8 688.637 447.796C681.999 477.354 665.624 517.164 648.519 541.725C647.68 542.935 647.057 544.241 645.603 544.803C635.675 529.034 624.642 515.487 610.719 503.376C600.65 494.618 589.384 485.325 575.884 483.561C581.55 473.922 587.357 463.53 592.915 453.71C603.773 434.526 611.009 413.311 617.531 392.174C632.643 413.017 668.192 427.697 692.683 423.262V423.27Z" fill="#F1EFEB"/>
<path d="M385.753 604.169C385.546 602.82 385.936 601.956 386.609 600.849C387.631 599.172 395.158 591.106 397.077 589.101C405.949 579.824 427.757 560.52 440.576 560.788C449.083 560.97 441.864 571.248 440.518 574.94C453.079 564.661 466.612 551.235 480.545 543.109C488.902 538.233 498.797 535.57 493.505 549.515C510.752 543.965 509.173 554.581 500.749 565.525C519.4 569.943 493.663 589.723 494.543 594.141C494.751 595.195 496.695 595.921 497.11 598.057C498.456 604.938 495.324 609.814 491.677 614.984C480.246 631.176 463.447 644.152 446.699 653.921C437.394 659.35 426.212 664.935 415.636 666.353L385.762 604.169H385.753Z" fill="#F1EFEB"/>
<path d="M575.884 483.57C589.384 485.325 600.65 494.619 610.719 503.385C624.642 515.505 635.667 529.043 645.603 544.812C647.106 549.428 634.603 570.825 631.496 575.831C626.287 584.225 608.475 610.359 598.116 608.907C594.718 608.431 594.07 602.976 593.546 603.235C588.794 607.947 581.758 612.676 574.937 610.342C568.083 607.999 576.034 597.53 578.609 593.812C579.174 593 581.641 592.412 581.334 590.527L580.877 590.052C579.864 590.553 579.257 592.317 578.609 592.87C576.217 594.936 569.903 600.815 567.751 601.826C557.748 606.546 554.583 598.619 558.804 589.689C560.316 586.499 574.497 570.056 573.168 568.37C559.352 580.119 543.634 578.389 554.915 556.431C559.784 546.947 571.514 532.346 574.979 523.597C575.153 523.165 575.211 522.058 574.538 522.205C569.097 527.677 557.665 524.85 557.699 516.076C557.724 509.843 570.293 490.685 574.065 484.236C574.555 483.406 575.843 483.665 575.893 483.579L575.884 483.57Z" fill="#F1EFEB"/>
<path d="M578.601 593.804V592.861C579.249 592.3 579.855 590.545 580.869 590.043L581.326 590.519C581.633 592.412 579.166 592.991 578.601 593.804Z" fill="#F1EFEB"/>
<path d="M541.482 252.729C543.476 255.574 544.365 264.547 544.082 268.161C543.8 271.775 540.551 282.391 536.954 282.884C527.458 284.18 527.192 256.005 533.963 251.743C536.181 250.343 539.937 250.525 541.482 252.729Z" fill="#F1EFEB"/>
<path d="M137.667 550.457L135.856 551.399C128.014 547.915 120.711 543.048 113.218 539.149L115.029 536.322C122.24 541.146 130.298 545.546 137.667 550.457Z" fill="#F1EFEB"/>
<path d="M137.668 526.907L135.856 527.849C130.647 525.117 125.588 522.247 120.462 519.368L122.273 516.542C127.117 519.922 132.6 523.535 137.668 526.907Z" fill="#F1EFEB"/>
<path d="M245.178 339.647C260.182 338.688 268.273 359.073 255.305 368.081C241.107 377.945 223.495 358.917 234.968 345.033C237.219 342.31 241.747 339.864 245.178 339.639L245.178 339.647Z" fill="#F1EFEB"/>
<path d="M183.842 362.971C186.509 356.651 190.546 356.798 193.62 362.66C198.43 371.858 204.013 397.81 187.323 395.442C178.018 394.119 178.924 382.284 180.228 375.212C180.71 372.61 182.812 365.417 183.85 362.962L183.842 362.971Z" fill="#F1EFEB"/>
<path d="M180.22 375.213H179.314C180.701 371.573 181.059 366.43 182.031 363.905C182.122 363.681 183.443 363.3 183.842 362.963C182.803 365.418 180.701 372.611 180.22 375.213Z" fill="#F1EFEB"/>
<path d="M137.668 526.907C140.326 528.679 144.314 529.302 145.817 532.552C142.029 532.708 138.864 529.431 135.856 527.849L137.668 526.907Z" fill="#F1EFEB"/>
<path d="M137.667 550.457C138.498 551.01 142.07 551.693 140.376 553.275C139.022 554.546 136.546 551.702 135.856 551.399L137.667 550.457Z" fill="#F1EFEB"/>
<path d="M567.734 326.221C571.93 329.826 577.537 332.869 581.741 336.613C600.234 353.064 603.723 373.12 617.531 392.174C611.009 413.311 603.782 434.526 592.915 453.71C587.357 463.53 581.55 473.922 575.884 483.561C575.834 483.648 574.538 483.389 574.056 484.219C570.285 490.668 557.715 509.834 557.69 516.058C557.657 524.842 569.088 527.66 574.53 522.188C575.203 522.041 575.136 523.147 574.97 523.58C571.506 532.328 559.775 546.93 554.907 556.414C543.625 578.381 559.352 580.101 573.159 568.352C574.488 570.038 560.307 586.472 558.795 589.671C554.575 598.593 557.74 606.529 567.743 601.809C569.894 600.797 576.208 594.919 578.601 592.853V593.795C576.025 597.512 568.075 607.99 574.929 610.324C581.758 612.658 588.786 607.93 593.538 603.218C594.061 602.959 594.709 608.414 598.107 608.889C608.475 610.342 626.287 584.207 631.488 575.813C634.587 570.808 647.098 549.411 645.594 544.795C647.048 544.233 647.671 542.927 648.51 541.717C665.616 517.148 681.999 477.346 688.629 447.788C690.423 439.791 691.943 431.458 692.674 423.262C693.239 423.158 693.97 423.392 694.485 423.262C695.025 441.763 699.121 458.586 698.099 477.432C696.745 502.356 688.828 521.583 684.774 544.587C680.462 569.035 683.677 591.409 672.919 615.166C664.782 667.455 653.387 721.265 613.402 734.665C569.28 749.457 486.244 698.763 441.29 691.917C426.445 689.651 411.017 689.634 396.603 685.191C403.391 679.502 411.009 674.306 415.62 666.344C426.187 664.927 437.377 659.342 446.682 653.913C463.431 644.144 480.229 631.168 491.66 614.975C495.307 609.806 498.439 604.93 497.094 598.048C496.678 595.922 494.734 595.187 494.526 594.132C493.646 589.714 519.391 569.934 500.732 565.517C509.165 554.572 510.735 543.956 493.488 549.506C498.788 535.562 488.885 538.224 480.528 543.1C466.596 551.235 453.071 564.652 440.501 574.931C441.847 571.24 449.066 560.952 440.559 560.779C427.741 560.511 405.924 579.807 397.06 589.092C395.141 591.098 387.614 599.172 386.592 600.841C385.919 601.947 385.529 602.812 385.737 604.16C383.095 604.411 380.536 605.189 378.027 606.028C329.742 622.185 292.416 630.925 243.882 609.036C236.795 605.837 228.064 599.475 220.953 597.564C228.355 579.072 233.896 559.915 237.892 540.282L240.874 520.303C243.068 521.384 250.104 522.248 252.647 523.13C343.55 554.589 392.939 501.267 440.975 430.801C448.502 419.752 454.649 412.516 461.362 399.73C474.488 374.746 487.639 345.361 496.412 318.397C496.728 317.412 497.974 316.91 498.007 316.798C518.353 335.117 543.359 333.068 567.726 326.221H567.734Z" fill="#F1EFEB"/>
<path d="M484.416 224.814C499.42 223.854 507.512 244.239 494.543 253.248C480.345 263.112 462.733 244.084 474.206 230.2C476.457 227.477 480.985 225.03 484.416 224.805L484.416 224.814Z" fill="#F1EFEB"/>
<path d="M325.074 87.3754C340.077 86.4158 348.169 106.801 335.201 115.809C321.003 125.673 303.39 106.646 314.863 92.7615C317.115 90.0383 321.643 87.5918 325.074 87.367L325.074 87.3754Z" fill="#F1EFEB"/>
<path d="M348.548 127.419C359.871 127.013 374.559 128.111 385.667 130.246C398.087 132.632 401.601 135.381 410.133 144.822C419.903 155.628 426.882 168.734 434.558 181.123C429.083 193.874 428.659 199.787 419.139 211.717C414.453 217.587 401.643 224.936 413.091 231.247C415.832 232.76 421.191 232.734 421.756 234.48C423.085 238.647 420.859 248.122 420.933 253.24C421.191 272.778 427.106 285.91 445.973 291.252C454.854 293.768 464.291 292.281 471.627 299.413C474.568 302.275 479.27 312.83 478.016 316.79C477.983 316.902 476.736 317.403 476.421 318.389C467.648 345.353 454.497 374.746 441.37 399.722C434.649 412.508 428.51 419.744 420.983 430.792C412.642 432.15 404.941 436.1 396.725 438.054C361.408 446.44 331.899 440.829 300.546 422.804C288.109 415.655 277.675 404.987 265.255 397.82C267.082 392.339 268.619 381.507 268.868 375.671C269.01 372.421 267.763 363.075 268.096 361.761C268.81 358.96 275.099 356.384 275.938 349.995C276.993 341.921 263.203 327.155 259.074 319.928C253.067 309.415 254.679 297.459 250.533 285.477C246.944 275.095 244.793 273.037 238.088 265.922C237.831 265.645 237.673 263.769 236.344 262.585C228.609 255.669 212.268 249.911 202.265 247.136C157.171 234.618 100.146 272.363 96.7985 321.942C94.8129 351.309 112.766 399.8 128.526 424.213C135.778 435.443 143.089 443.717 152.975 452.483C165.337 463.445 179.136 471.303 191.839 481.297C202.49 489.683 209.443 498.665 211.827 512.782C198.045 504.172 178.015 490.824 163.161 485.697C160.17 484.668 153.515 482.04 152.195 487.063C150.641 492.976 156.34 496.019 159.264 499.443C159.937 500.23 161.956 500.532 159.023 500.385C145.798 493.806 133.436 485.282 120.409 478.366C115.832 475.937 101.609 466.808 98.2025 474.147C93.9988 483.207 115.474 494.256 119.936 500.532L132.156 509.004C118.656 504.526 106.377 495.466 93.8409 489.06C87.959 486.052 75.3479 478.695 73.3042 489.224C72.5315 488.126 68.3694 486.052 66.9654 484.513C35.936 450.477 8.69488 403.604 11.694 354.923C15.6318 291.174 61.665 234.195 109.767 198.819C143.986 173.662 184.37 161.152 224.505 150.035C228.21 184.762 281.164 191.246 301.136 169.478C302.614 167.87 304.484 163.167 305.074 162.743C307.358 161.092 318.823 161.36 323.683 159.501C336.66 154.53 344.128 142.54 344.917 128.362C346.072 128.267 347.443 127.463 348.54 127.419H348.548Z" fill="#C65B21"/>
<path d="M200.961 597.572C208.081 599.482 216.804 605.845 223.89 609.044C272.424 630.942 309.751 622.202 358.035 606.035C360.544 605.197 363.103 604.41 365.745 604.168L395.62 666.352C391.017 674.305 383.391 679.51 376.603 685.198C361.516 697.829 343.92 710.07 325.186 716.018C315.059 719.234 304.093 719.813 293.999 723.141C285.55 725.925 277.101 731.752 268.852 734.665C202.041 758.24 136.518 744.884 84.1374 696.056C69.5157 682.423 59.696 666.049 38.4199 662.6C34.3408 661.934 27.7527 664.545 27.0549 658.407C24.8949 639.293 31.35 618.182 34.3491 599.465C47.9738 599.033 64.5394 591.2 73.2625 580.126C79.7924 571.835 81.5952 561.807 85.9568 552.349C104.932 567.712 157.935 588.451 181.919 594.287C188.25 595.825 195.012 595.981 200.944 597.572H200.961Z" fill="#694835"/>
<path d="M486.174 122.708C491.391 121.281 506.977 120.036 512.85 119.846C545.466 118.791 576.562 137.421 593.402 166.123C604.742 185.462 604.725 205.856 622.471 221.607C641.387 238.405 660.67 236.027 670.681 264.72C677.177 283.35 672.01 310.176 681.381 326.135C686.324 334.564 695.529 340.978 700.032 349.122C706.429 360.689 707.027 376.484 704.884 389.391C702.732 402.35 686.631 420.176 674.502 423.262C673.987 423.392 673.256 423.158 672.691 423.262C648.208 427.697 612.659 413.018 597.539 392.175C583.723 373.129 580.234 353.073 561.75 336.613C557.546 332.869 551.938 329.826 547.743 326.221C539.925 319.504 525.661 304.107 521.307 294.84C519.613 291.235 518.815 286.54 516.954 282.884C520.551 282.391 523.816 271.636 524.082 268.161C524.348 264.686 523.467 255.582 521.482 252.729C526.059 244.275 530.388 239.511 528.519 228.921C526.865 219.584 515.791 214.778 507.974 219.351C504.825 221.192 500.962 228.195 496.55 225.463C493.967 223.872 487.03 211.925 483.923 208.424C479.029 202.917 472.508 198.629 467.581 193.39C458.501 183.733 447.053 165.795 450.858 151.902C453.134 143.585 464.566 133.03 471.976 129.122C474.377 127.86 484.13 123.252 486.166 122.69L486.174 122.708Z" fill="#4F2E16"/>
<path d="M344.926 47.3391C345.773 56.0533 346.87 66.1767 348.988 74.6748C350.899 82.3171 360.228 99.2355 360.37 104.397C360.602 112.843 351.746 110.88 346.737 111.416C339.866 112.151 321.323 120.304 320.634 128.084C320.102 134.084 333.336 128.879 336.435 128.49C339.268 128.136 342.126 128.603 344.934 128.378C344.145 142.547 336.676 154.547 323.699 159.518C318.831 161.385 307.366 161.117 305.09 162.759C304.5 163.183 302.631 167.886 301.152 169.494C281.18 191.262 228.219 184.778 224.522 150.051C223.957 144.769 225.219 138.225 224.522 133.09C233.029 134.784 247.609 125.888 249.711 117.295C250.533 113.923 242.533 103.255 241.81 97.6794C240.115 84.6253 248.514 76.6113 261.001 79.5852C269.142 81.5217 274.493 99.8666 284.279 87.3917C292.462 76.9571 293.891 59.1396 290.693 46.5005C292.255 45.8954 293.833 45.368 295.553 45.4285C307.209 45.8435 319.188 48.0826 330.869 48.3333C334.965 48.4197 341.088 48.5235 344.942 47.3564L344.926 47.3391Z" fill="#F1CCA4"/>
<path d="M344.926 47.3391C341.079 48.5148 334.948 48.412 330.852 48.3169C319.172 48.0662 307.192 45.8271 295.536 45.4122C293.825 45.3517 292.238 45.879 290.676 46.4842C293.866 59.1233 292.437 76.9408 284.263 87.3754C274.484 99.8502 269.126 81.5054 260.984 79.5689C248.498 76.595 240.099 84.6089 241.793 97.663C242.516 103.239 250.517 113.907 249.694 117.279C247.601 125.872 233.012 134.768 224.505 133.073C224.247 131.163 223.093 126.356 222.586 123.287C217.751 94.0753 199.225 57.0052 224.031 32.2371C225.735 30.5427 228.634 29.3842 229.656 28.1998C233.253 24.0589 232.356 18.0765 239.6 12.6301C254.67 1.30501 290.344 7.25282 309.153 5.86097C323.168 4.82356 335.513 -3.88203 349.944 2.05713C360.112 6.24135 364 20.1253 360.76 30.3525C359.016 35.8594 350.243 45.6975 344.926 47.3227L344.926 47.3391Z" fill="#1E1913"/>
<path d="M66.9654 484.513C68.3694 486.052 72.5232 488.126 73.3042 489.224C74.7746 491.299 74.9906 495.085 77.7986 498.215C82.3346 503.281 96.1005 512.237 102.282 516.551L100.47 519.378C94.6965 516.136 77.5494 503.852 71.5262 506.67C63.6422 510.353 72.9635 520.044 76.461 523.173C81.3709 527.574 89.3962 532.562 95.0455 536.34L93.2344 539.167C88.499 536.703 81.9857 531.948 76.6854 532.761C72.5232 533.4 73.0632 537.896 74.7496 540.973C75.7964 542.884 83.9546 550.708 85.99 552.359C81.6285 561.817 79.8257 571.845 73.2958 580.136C64.5727 591.21 48.007 599.042 34.3823 599.475C27.9688 599.682 5.02279 597.037 0.868917 592.412C-0.0200115 591.426 -0.111399 591.158 0.0879872 589.792C0.26245 588.599 7.57326 578.113 9.01881 575.441C11.237 571.335 13.8041 566.667 15.3825 562.284C23.7152 539.193 15.0087 523.26 33.0116 502.425C42.2498 491.722 53.54 486.994 66.9736 484.538L66.9654 484.513Z" fill="#6A5032"/>
<path d="M486.174 122.706C484.13 123.268 474.385 127.868 471.984 129.138C464.574 133.046 453.142 143.602 450.866 151.918C443.863 159.803 438.787 171.3 434.566 181.13C426.89 168.75 419.92 155.636 410.141 144.829C401.601 135.389 398.095 132.64 385.675 130.254C398.602 108.831 425.203 109.445 446.671 112.471C459.838 114.329 473.48 118.73 486.174 122.715V122.706Z" fill="#EEC460"/>
<path d="M346.737 111.408C351.04 116.241 352.768 121.774 348.548 127.428C347.451 127.471 346.081 128.275 344.926 128.37C342.118 128.595 339.26 128.128 336.427 128.482C333.336 128.871 320.094 134.076 320.626 128.076C321.315 120.304 339.866 112.143 346.729 111.408H346.737Z" fill="#1E1913"/>
<path d="M265.246 397.828C262.937 404.745 259.24 409.491 252.909 412.784C242.192 418.369 235.903 415.387 225.361 417.09C207.682 419.951 197.845 433.489 196.433 451.532C183.124 459.563 167.19 455.543 152.975 452.474C143.097 443.708 135.787 435.443 128.526 424.205C133.901 421.369 138.669 415.681 140.24 409.543C141.054 406.387 140.763 401.805 141.66 399.713C142.175 398.503 147.102 395.079 148.821 393.03C152.394 388.751 157.304 380.469 159.314 375.213H160.22C158.915 382.285 158.018 394.12 167.314 395.442C184.005 397.811 178.422 371.85 173.612 362.66C170.546 356.79 166.509 356.643 163.833 362.972C163.435 363.309 162.114 363.689 162.022 363.914C154.57 359.367 148.074 350.549 149.561 341.056C151.463 328.945 165.52 322.175 175.016 329.187C177.616 331.106 178.023 334.936 181.404 334.719C186.721 334.382 209.725 317.118 214.544 312.579C227.953 299.975 232.015 282.849 238.071 265.931C244.776 273.045 246.928 275.103 250.516 285.486C254.662 297.468 253.05 309.424 259.057 319.936C263.186 327.164 276.977 341.929 275.922 350.004C275.082 356.393 268.794 358.978 268.079 361.77C267.747 363.084 268.985 372.429 268.852 375.68C268.602 381.515 267.065 392.347 265.238 397.828H265.246ZM225.178 339.647C221.747 339.863 217.219 342.318 214.968 345.042C203.495 358.917 221.099 377.953 235.305 368.089C248.273 359.081 240.182 338.688 225.178 339.656V339.647Z" fill="#E1B689"/>
<path d="M238.088 265.921C232.032 282.839 227.969 299.965 214.561 312.569C209.734 317.108 186.738 334.364 181.421 334.709C178.048 334.926 177.641 331.104 175.032 329.177C165.537 322.157 151.48 328.935 149.578 341.046C148.082 350.539 154.579 359.357 162.039 363.904C161.067 366.428 160.71 371.572 159.323 375.212C157.32 380.468 152.41 388.759 148.83 393.029C147.11 395.078 142.184 398.502 141.669 399.712C140.78 401.804 141.062 406.386 140.248 409.541C138.678 415.671 133.909 421.368 128.534 424.203C112.766 399.798 94.8213 351.308 96.8068 321.932C100.155 272.353 157.179 234.608 202.274 247.126C212.268 249.901 228.617 255.65 236.352 262.575C237.681 263.768 237.839 265.644 238.097 265.912L238.088 265.921Z" fill="#6A5032"/>
<path d="M73.304 489.215C75.3477 478.685 87.9589 486.042 93.8408 489.05C106.369 495.456 118.648 504.516 132.156 508.995L119.935 500.522C115.474 494.246 94.0069 483.198 98.2023 474.138C101.6 466.807 115.831 475.927 120.409 478.356C133.435 485.273 145.797 493.797 159.023 500.375C161.964 500.522 159.945 500.22 159.264 499.433C156.34 496.01 150.641 492.967 152.194 487.053C153.515 482.031 160.17 484.65 163.161 485.687C178.015 490.814 198.045 504.153 211.827 512.772C214.361 514.355 218.773 519.274 220.883 520.311L217.9 540.29C213.904 559.914 208.363 579.071 200.961 597.572C195.029 595.981 188.267 595.826 181.936 594.287C157.952 588.451 104.948 567.712 85.9733 552.35C83.9379 550.707 75.788 542.883 74.7329 540.964C73.0382 537.878 72.4982 533.382 76.6687 532.751C81.969 531.939 88.4823 536.693 93.2177 539.157C100.703 543.048 108.005 547.915 115.856 551.407C116.546 551.71 119.03 554.554 120.376 553.283C122.07 551.693 118.498 551.018 117.667 550.465C110.298 545.555 102.248 541.163 95.0288 536.33C89.3795 532.552 81.3542 527.556 76.4444 523.164C72.9551 520.034 63.6255 510.352 71.5096 506.66C77.5327 503.842 94.6881 516.135 100.454 519.369C105.58 522.247 110.639 525.109 115.848 527.849C118.855 529.431 122.021 532.708 125.809 532.552C124.305 529.302 120.318 528.679 117.659 526.907C112.6 523.536 107.108 519.922 102.265 516.542C96.0839 512.228 82.3179 503.271 77.7819 498.205C74.9822 495.076 74.7662 491.289 73.2874 489.215H73.304Z" fill="#FFE2C4"/>
<path d="M521.482 252.729C519.937 250.516 516.181 250.343 513.963 251.743C507.201 256.005 507.467 284.18 516.954 282.884C518.815 286.549 519.613 291.235 521.307 294.84C525.661 304.107 539.925 319.504 547.743 326.221C523.376 333.077 498.37 335.116 478.024 316.797C479.279 312.838 474.576 302.282 471.635 299.421C464.3 292.289 454.854 293.776 445.981 291.26C427.114 285.909 421.207 272.785 420.941 253.248C420.875 248.13 423.101 238.655 421.764 234.488C421.207 232.741 415.849 232.767 413.099 231.254C401.651 224.944 414.461 217.595 419.147 211.725C428.668 199.795 429.083 193.881 434.566 181.13C438.787 171.309 443.854 159.811 450.866 151.918C447.061 165.811 458.509 183.75 467.59 193.406C472.516 198.637 479.038 202.925 483.931 208.44C487.038 211.941 493.975 223.88 496.559 225.48C500.97 228.203 504.833 221.209 507.982 219.367C515.799 214.794 526.873 219.592 528.527 228.938C530.404 239.528 526.076 244.291 521.49 252.746L521.482 252.729Z" fill="#FFE2C4"/>
<path d="M196.433 451.532C212.043 472.911 220.983 499.278 232.647 523.138C230.113 522.257 223.068 521.392 220.875 520.311C218.681 519.231 214.353 514.355 211.819 512.773C209.427 498.656 202.481 489.673 191.831 481.288C179.136 471.294 165.329 463.435 152.967 452.474C167.182 455.543 183.116 459.562 196.425 451.531L196.433 451.532Z" fill="#694835"/>
<path d="M672.683 423.27C671.952 431.466 670.44 439.8 668.637 447.796C661.999 477.354 645.624 517.164 628.519 541.725C627.68 542.935 627.057 544.241 625.603 544.803C615.675 529.034 604.642 515.487 590.719 503.376C580.65 494.618 569.384 485.325 555.884 483.561C561.55 473.922 567.357 463.53 572.915 453.71C583.773 434.526 591.009 413.311 597.531 392.174C612.643 413.017 648.192 427.697 672.683 423.262V423.27Z" fill="#C65B21"/>
<path d="M365.753 604.169C365.546 602.82 365.936 601.956 366.609 600.849C367.631 599.172 375.158 591.106 377.077 589.101C385.949 579.824 407.757 560.52 420.576 560.788C429.083 560.97 421.864 571.248 420.518 574.94C433.079 564.661 446.612 551.235 460.545 543.109C468.902 538.233 478.797 535.57 473.505 549.515C490.752 543.965 489.173 554.581 480.749 565.525C499.4 569.943 473.663 589.723 474.543 594.141C474.751 595.195 476.695 595.921 477.11 598.057C478.456 604.938 475.324 609.814 471.677 614.984C460.246 631.176 443.447 644.152 426.699 653.921C417.394 659.35 406.212 664.935 395.636 666.353L365.762 604.169H365.753Z" fill="#E1B689"/>
<path d="M555.884 483.57C569.384 485.325 580.65 494.619 590.719 503.385C604.642 515.505 615.667 529.043 625.603 544.812C627.106 549.428 614.603 570.825 611.496 575.831C606.287 584.225 588.475 610.359 578.116 608.907C574.718 608.431 574.07 602.976 573.546 603.235C568.794 607.947 561.758 612.676 554.937 610.342C548.083 607.999 556.034 597.53 558.609 593.812C559.174 593 561.641 592.412 561.334 590.527L560.877 590.052C559.864 590.553 559.257 592.317 558.609 592.87C556.217 594.936 549.903 600.815 547.751 601.826C537.748 606.546 534.583 598.619 538.804 589.689C540.316 586.499 554.497 570.056 553.168 568.37C539.352 580.119 523.634 578.389 534.915 556.431C539.784 546.947 551.514 532.346 554.979 523.597C555.153 523.165 555.211 522.058 554.538 522.205C549.097 527.677 537.665 524.85 537.699 516.076C537.724 509.843 550.293 490.685 554.065 484.236C554.555 483.406 555.843 483.665 555.893 483.579L555.884 483.57Z" fill="#F1CCA4"/>
<path d="M558.601 593.804V592.861C559.249 592.3 559.855 590.545 560.869 590.043L561.326 590.519C561.633 592.412 559.166 592.991 558.601 593.804Z" fill="#B3705F"/>
<path d="M521.482 252.729C523.476 255.574 524.365 264.547 524.082 268.161C523.8 271.775 520.551 282.391 516.954 282.884C507.458 284.18 507.192 256.005 513.963 251.743C516.181 250.343 519.937 250.525 521.482 252.729Z" fill="#C65B21"/>
<path d="M117.667 550.457L115.856 551.399C108.014 547.915 100.711 543.048 93.2177 539.149L95.0288 536.322C102.24 541.146 110.298 545.546 117.667 550.457Z" fill="#694835"/>
<path d="M117.668 526.907L115.856 527.849C110.647 525.117 105.588 522.247 100.462 519.368L102.273 516.542C107.117 519.922 112.6 523.535 117.668 526.907Z" fill="#694835"/>
<path d="M225.178 339.647C240.182 338.688 248.273 359.073 235.305 368.081C221.107 377.945 203.495 358.917 214.968 345.033C217.219 342.31 221.747 339.864 225.178 339.639L225.178 339.647Z" fill="#B3705F"/>
<path d="M163.842 362.971C166.509 356.651 170.546 356.798 173.62 362.66C178.43 371.858 184.013 397.81 167.323 395.442C158.018 394.119 158.924 382.284 160.228 375.212C160.71 372.61 162.812 365.417 163.85 362.962L163.842 362.971Z" fill="#4F2E16"/>
<path d="M160.22 375.213H159.314C160.701 371.573 161.059 366.43 162.031 363.905C162.122 363.681 163.443 363.3 163.842 362.963C162.803 365.418 160.701 372.611 160.22 375.213Z" fill="#B3705F"/>
<path d="M117.668 526.907C120.326 528.679 124.314 529.302 125.817 532.552C122.029 532.708 118.864 529.431 115.856 527.849L117.668 526.907Z" fill="#694835"/>
<path d="M117.667 550.457C118.498 551.01 122.07 551.693 120.376 553.275C119.022 554.546 116.546 551.702 115.856 551.399L117.667 550.457Z" fill="#694835"/>
<path d="M547.734 326.221C551.93 329.826 557.537 332.869 561.741 336.613C580.234 353.064 583.723 373.12 597.531 392.174C591.009 413.311 583.782 434.526 572.915 453.71C567.357 463.53 561.55 473.922 555.884 483.561C555.834 483.648 554.538 483.389 554.056 484.219C550.285 490.668 537.715 509.834 537.69 516.058C537.657 524.842 549.088 527.66 554.53 522.188C555.203 522.041 555.136 523.147 554.97 523.58C551.506 532.328 539.775 546.93 534.907 556.414C523.625 578.381 539.352 580.101 553.159 568.352C554.488 570.038 540.307 586.472 538.795 589.671C534.575 598.593 537.74 606.529 547.743 601.809C549.894 600.797 556.208 594.919 558.601 592.853V593.795C556.025 597.512 548.075 607.99 554.929 610.324C561.758 612.658 568.786 607.93 573.538 603.218C574.061 602.959 574.709 608.414 578.107 608.889C588.475 610.342 606.287 584.207 611.488 575.813C614.587 570.808 627.098 549.411 625.594 544.795C627.048 544.233 627.671 542.927 628.51 541.717C645.616 517.148 661.999 477.346 668.629 447.788C670.423 439.791 671.943 431.458 672.674 423.262C673.239 423.158 673.97 423.392 674.485 423.262C675.025 441.763 679.121 458.586 678.099 477.432C676.745 502.356 668.828 521.583 664.774 544.587C660.462 569.035 663.677 591.409 652.919 615.166C644.782 667.455 633.387 721.265 593.402 734.665C549.28 749.457 466.244 698.763 421.29 691.917C406.445 689.651 391.017 689.634 376.603 685.191C383.391 679.502 391.009 674.306 395.62 666.344C406.187 664.927 417.377 659.342 426.682 653.913C443.431 644.144 460.229 631.168 471.66 614.975C475.307 609.806 478.439 604.93 477.094 598.048C476.678 595.922 474.734 595.187 474.526 594.132C473.646 589.714 499.391 569.934 480.732 565.517C489.165 554.572 490.735 543.956 473.488 549.506C478.788 535.562 468.885 538.224 460.528 543.1C446.596 551.235 433.071 564.652 420.501 574.931C421.847 571.24 429.066 560.952 420.559 560.779C407.741 560.511 385.924 579.807 377.06 589.092C375.141 591.098 367.614 599.172 366.592 600.841C365.919 601.947 365.529 602.812 365.737 604.16C363.095 604.411 360.536 605.189 358.027 606.028C309.742 622.185 272.416 630.925 223.882 609.036C216.795 605.837 208.064 599.475 200.953 597.564C208.355 579.072 213.896 559.915 217.892 540.282L220.874 520.303C223.068 521.384 230.104 522.248 232.647 523.13C323.55 554.589 372.939 501.267 420.975 430.801C428.502 419.752 434.649 412.516 441.362 399.73C454.488 374.746 467.639 345.361 476.412 318.397C476.728 317.412 477.974 316.91 478.007 316.798C498.353 335.117 523.359 333.068 547.726 326.221H547.734Z" fill="#EEC460"/>
<path d="M464.416 224.814C479.42 223.854 487.512 244.239 474.543 253.248C460.345 263.112 442.733 244.084 454.206 230.2C456.457 227.477 460.985 225.03 464.416 224.805L464.416 224.814Z" fill="#E5A4A4"/>
<path d="M305.074 87.3754C320.077 86.4158 328.169 106.801 315.201 115.809C301.003 125.673 283.39 106.646 294.863 92.7615C297.115 90.0383 301.643 87.5918 305.074 87.367L305.074 87.3754Z" fill="#E5A4A4"/>
</svg>
