<svg width="1220" height="907" viewBox="0 0 1220 907" fill="none" xmlns="http://www.w3.org/2000/svg">
<path d="M610 0L1220 432.74H0L610 0Z" fill="#C65B21"/>
<path d="M1113.34 432.74H1220V907H0V432.74H106.652L610 75.6602L1113.34 432.74Z" fill="#EEC460"/>
<path d="M580.236 507.94C586.152 500.477 592.181 497.291 594.456 496.632C594.646 496.349 595.651 495.558 598.154 494.653C601.282 493.522 608.677 494.087 610.952 494.653C613.228 495.218 621.76 501.155 628.017 503.699C634.274 506.244 645.651 507.94 651.339 510.202C657.027 512.463 663.853 520.096 668.404 527.164C672.954 534.232 673.807 542.713 676.651 557.414C679.496 572.114 677.505 579.465 673.807 588.511C670.11 597.558 665.844 597.841 655.889 606.887C645.935 615.934 643.66 612.824 638.825 614.238C633.99 615.651 622.613 620.457 606.686 621.871C590.759 623.284 576.254 612.824 565.162 604.626C554.07 596.427 550.657 586.815 546.675 577.203C542.693 567.591 542.125 561.372 544.115 555.152C546.106 548.932 551.226 538.472 562.033 529.143C572.841 519.814 572.841 517.269 580.236 507.94Z" fill="#C65B21"/>
<path d="M582.573 516.698C588.032 509.808 593.596 506.867 595.696 506.258C595.871 505.997 596.798 505.266 599.107 504.431C601.994 503.387 608.818 503.909 610.917 504.431C613.017 504.953 620.89 510.434 626.664 512.783C632.438 515.132 642.936 516.698 648.184 518.786C653.433 520.874 659.732 527.921 663.931 534.446C668.13 540.971 668.917 548.801 671.542 562.373C674.166 575.945 672.329 582.731 668.917 591.082C665.506 599.434 661.569 599.695 652.383 608.047C643.198 616.399 641.098 613.528 636.637 614.833C632.175 616.138 621.678 620.575 606.981 621.88C592.284 623.185 578.899 613.528 568.664 605.959C558.429 598.39 555.279 589.517 551.605 580.643C547.931 571.769 547.406 566.027 549.243 560.285C551.08 554.543 555.804 544.886 565.777 536.273C575.75 527.66 575.75 525.311 582.573 516.698Z" fill="#CA6A35"/>
<path d="M618.127 569.306C622.337 569.306 625.751 565.905 625.751 561.71C625.751 557.515 622.337 554.115 618.127 554.115C613.916 554.115 610.503 557.515 610.503 561.71C610.503 565.905 613.916 569.306 618.127 569.306Z" fill="#C65B21"/>
<path d="M583.615 577.647C586.054 576.092 588.874 574.342 591.352 572.808C591.696 572.593 592.555 572 592.804 571.883C593.417 571.883 594.107 573.128 594.521 573.631C603.731 584.816 620.332 586.556 631.335 576.835C635.58 573.084 639.143 566.635 639.636 560.961C639.803 559.029 639.515 556.884 639.638 554.928C639.856 554.888 639.934 554.973 640.016 555.162C640.303 555.83 640.673 558.768 640.726 559.608C641.342 569.298 639.502 578.229 632.901 585.582C619.681 600.308 596.779 598.395 583.885 584.226C583.311 583.595 580.731 580.502 580.577 579.916C580.532 579.746 580.517 579.634 580.617 579.476C580.794 579.192 583.13 577.958 583.615 577.647C583.717 577.582 583.559 577.683 583.615 577.647Z" fill="#C65B21"/>
<path d="M622.892 579.209C622.788 579.506 622.366 579.521 622.105 579.576C608.464 582.487 593.468 574.566 590.167 560.743C587.384 549.091 592.431 537.764 601.915 530.978C602.203 530.772 602.383 530.657 603.015 530.853C603.465 530.994 604.015 532.197 604.319 532.672C605.499 534.526 606.682 536.375 607.859 538.233C608.166 538.72 608.873 539.874 608.869 540.348C608.862 541.007 608.141 541.555 607.72 541.916C599.377 549.076 597.11 561.042 603.638 570.243C606.962 574.927 612.795 578.609 618.604 579.069C620.019 579.181 621.503 578.886 622.89 579.209H622.892Z" fill="#C65B21"/>
<path d="M602.88 558.455C602.338 558.062 603.207 553.267 603.438 552.434C606.722 540.563 621.707 538.268 629.889 546.804C630.141 547.067 631.68 548.886 631.725 549.057C631.795 549.32 631.586 549.493 631.399 549.639C630.099 550.648 628.126 551.531 626.713 552.429C626.581 552.513 626.405 552.62 626.295 552.691C625.614 552.826 625.251 552.1 624.849 551.688C617.924 544.598 606.446 546.838 603.626 556.418C603.558 556.647 603.325 558.776 602.88 558.452V558.455Z" fill="#C65B21"/>
<path d="M1113.69 433.079H107L610.348 76L1113.69 433.079Z" fill="#D2AC51"/>
</svg>
