<svg width="316" height="72" viewBox="0 0 316 72" fill="none" xmlns="http://www.w3.org/2000/svg">
<path d="M41.4383 42.6913C46.0807 42.6913 49.8441 38.9257 49.8441 34.2806C49.8441 29.6356 46.0807 25.87 41.4383 25.87C36.7959 25.87 33.0325 29.6356 33.0325 34.2806C33.0325 38.9257 36.7959 42.6913 41.4383 42.6913Z" fill="#EEC460"/>
<path d="M3.38714 51.928C6.07699 50.2053 9.18563 48.2677 11.9175 46.569C12.2973 46.3317 13.2444 45.6741 13.5191 45.5449C14.1946 45.5449 14.9556 46.9235 15.4119 47.4807C25.5664 59.8654 43.87 61.7923 56.0013 51.0282C60.6815 46.8754 64.6097 39.7339 65.1531 33.4514C65.3377 31.3112 65.0195 28.9367 65.1561 26.771C65.3963 26.7259 65.4818 26.8205 65.5719 27.0293C65.8886 27.7697 66.2969 31.0229 66.3554 31.9525C67.0339 42.6821 65.006 52.5722 57.7275 60.714C43.1525 77.0201 17.9021 74.9024 3.68585 59.2121C3.05241 58.5137 0.207956 55.0893 0.0383387 54.4405C-0.0111954 54.2513 -0.027707 54.1281 0.0818685 53.9524C0.277002 53.6385 2.85277 52.2719 3.38714 51.928C3.49972 51.8559 3.3256 51.967 3.38714 51.928Z" fill="#80C7DB"/>
<path d="M46.6919 53.6567C46.5778 53.9856 46.1125 54.0021 45.8243 54.0637C30.7854 57.2868 14.2516 48.5157 10.6116 33.2098C7.54349 20.3069 13.1078 7.7646 23.564 0.250573C23.8822 0.0222844 24.0803 -0.105496 24.7768 0.11228C25.2737 0.268479 25.8801 1.60079 26.2148 2.12645C27.5162 4.17955 28.8206 6.22665 30.1175 8.28426C30.4567 8.82344 31.2358 10.1015 31.2313 10.6256C31.2237 11.3555 30.4282 11.9624 29.9644 12.3619C20.766 20.2904 18.2668 33.5402 25.4643 43.7291C29.1283 48.9152 35.5602 52.9928 41.9651 53.502C43.5247 53.6266 45.1608 53.2992 46.6904 53.6567H46.6919Z" fill="#80C7DB"/>
<path d="M24.6284 30.6759C24.0309 30.2404 24.9886 24.9311 25.2438 24.009C28.8643 10.8643 45.3861 8.32312 54.4074 17.7746C54.6851 18.0659 56.3812 20.08 56.4308 20.2692C56.5088 20.5606 56.2776 20.7528 56.072 20.9135C54.6385 22.031 52.4635 23.0087 50.9054 24.003C50.7598 24.0961 50.5661 24.2149 50.4445 24.293C49.694 24.4432 49.2933 23.6395 48.8505 23.1829C41.2148 15.3325 28.5596 17.8121 25.4509 28.4201C25.3759 28.6739 25.1192 31.0319 24.6284 30.6729V30.6759Z" fill="#80C7DB"/>
<path d="M73.7637 23.7536V14.5055H81.4782V23.7536H79.9925V15.6797H75.2493V23.7536H73.7637Z" fill="#F1EFEB"/>
<path d="M84.3574 20.3631V23.7536H82.8717V14.5055H86.4564C90.8315 14.5055 90.8315 20.3631 86.4564 20.3631H84.3574ZM84.3574 19.1757H86.3746C88.937 19.1757 88.937 15.6797 86.3746 15.6797H84.3574V19.1757Z" fill="#F1EFEB"/>
<path d="M95.1579 23.8591C92.5001 23.8591 90.6192 21.9066 90.6192 19.123C90.6192 16.3525 92.5001 14.4 95.1579 14.4C97.8294 14.4 99.7103 16.3525 99.7103 19.123C99.7103 21.9066 97.8294 23.8591 95.1579 23.8591ZM95.1579 22.6454C96.9434 22.6454 98.1974 21.2206 98.1974 19.1362C98.1974 17.0517 96.9434 15.6137 95.1579 15.6137C93.3724 15.6137 92.1185 17.0517 92.1185 19.1362C92.1185 21.2206 93.3724 22.6454 95.1579 22.6454Z" fill="#F1EFEB"/>
<path d="M106.42 23.7536H104.948V22.0121H103.857C101.704 22.0121 100.573 20.5478 100.573 19.0702C100.573 17.5926 101.704 16.1414 103.857 16.1414H104.948V14.4132H106.42V16.1414H107.51C109.664 16.1414 110.795 17.5926 110.795 19.0702C110.795 20.5478 109.664 22.0121 107.51 22.0121H106.42V23.7536ZM102.086 19.0702C102.086 19.9937 102.685 20.8248 103.939 20.8248H104.948V17.3288H103.939C102.685 17.3288 102.086 18.1467 102.086 19.0702ZM106.42 17.3288V20.8248H107.428C108.682 20.8248 109.282 19.9937 109.282 19.0702C109.282 18.1467 108.682 17.3288 107.428 17.3288H106.42Z" fill="#F1EFEB"/>
<path d="M111.793 23.7536V14.5055H118.158V15.6665H113.279V18.4897H117.763V19.6639H113.279V22.5794H118.158V23.7536H111.793Z" fill="#F1EFEB"/>
<path d="M119.035 19.1362C119.035 16.3525 120.916 14.4 123.573 14.4C125.55 14.4 127.158 15.5214 127.703 17.21L126.327 17.6586C126.013 16.4185 124.936 15.6137 123.573 15.6137C121.788 15.6137 120.534 17.0649 120.534 19.1362C120.534 21.2074 121.788 22.6718 123.573 22.6718C125.005 22.6718 126.068 21.7879 126.327 20.429L127.703 20.8908C127.267 22.685 125.659 23.8855 123.573 23.8855C120.916 23.8855 119.035 21.9198 119.035 19.1362Z" fill="#F1EFEB"/>
<path d="M128.595 19.1362C128.595 16.3525 130.476 14.4 133.134 14.4C135.11 14.4 136.719 15.5214 137.264 17.21L135.887 17.6586C135.574 16.4185 134.497 15.6137 133.134 15.6137C131.348 15.6137 130.095 17.0649 130.095 19.1362C130.095 21.2074 131.348 22.6718 133.134 22.6718C134.565 22.6718 135.628 21.7879 135.887 20.429L137.264 20.8908C136.828 22.685 135.219 23.8855 133.134 23.8855C130.476 23.8855 128.595 21.9198 128.595 19.1362Z" fill="#F1EFEB"/>
<path d="M144.603 14.5055H145.993V23.7536H144.507V16.933L139.669 23.7536H138.279V14.5055H139.764V21.3261L144.603 14.5055Z" fill="#F1EFEB"/>
<path d="M151.803 23.8591C149.145 23.8591 147.264 21.9066 147.264 19.123C147.264 16.3525 149.145 14.4 151.803 14.4C154.474 14.4 156.355 16.3525 156.355 19.123C156.355 21.9066 154.474 23.8591 151.803 23.8591ZM151.803 22.6454C153.588 22.6454 154.842 21.2206 154.842 19.1362C154.842 17.0517 153.588 15.6137 151.803 15.6137C150.017 15.6137 148.763 17.0517 148.763 19.1362C148.763 21.2206 150.017 22.6454 151.803 22.6454Z" fill="#F1EFEB"/>
<path d="M157.613 23.7536V14.5055H159.098V18.4897H163.841V14.5055H165.327V23.7536H163.841V19.6639H159.098V23.7536H157.613Z" fill="#F1EFEB"/>
<path d="M166.189 23.7536L169.924 14.5055H171.614L175.348 23.7536H173.822L172.963 21.59H168.561L167.716 23.7536H166.189ZM169.038 20.4158H172.5L170.769 16.0755L169.038 20.4158Z" fill="#F1EFEB"/>
<path d="M177.496 21.4317L178.164 14.5187H184.107V23.7536H182.635V15.6929H179.513L178.955 21.5636C178.832 22.8433 178 23.7536 176.597 23.7536H175.493V22.5794H176.406C177.046 22.5794 177.428 22.1705 177.496 21.4317Z" fill="#F1EFEB"/>
<path d="M186.995 17.9092H189.094C193.469 17.9092 193.469 23.7668 189.094 23.7668H185.509V14.5187H186.995V17.9092ZM189.012 19.0834H186.995V22.5794H189.012C191.574 22.5794 191.574 19.0834 189.012 19.0834Z" fill="#F1EFEB"/>
<path d="M193.379 23.7536V14.5055H194.865V18.4897H199.608V14.5055H201.094V23.7536H199.608V19.6639H194.865V23.7536H193.379Z" fill="#F1EFEB"/>
<path d="M206.903 23.8591C204.245 23.8591 202.365 21.9066 202.365 19.123C202.365 16.3525 204.245 14.4 206.903 14.4C209.575 14.4 211.456 16.3525 211.456 19.123C211.456 21.9066 209.575 23.8591 206.903 23.8591ZM206.903 22.6454C208.689 22.6454 209.943 21.2206 209.943 19.1362C209.943 17.0517 208.689 15.6137 206.903 15.6137C205.118 15.6137 203.864 17.0517 203.864 19.1362C203.864 21.2206 205.118 22.6454 206.903 22.6454Z" fill="#F1EFEB"/>
<path d="M212.713 23.7536V14.5055H219.078V15.6665H214.199V18.4897H218.683V19.6639H214.199V22.5794H219.078V23.7536H212.713Z" fill="#F1EFEB"/>
<path d="M223.087 19.1362C223.087 16.3525 224.968 14.4 227.625 14.4C229.602 14.4 231.21 15.5214 231.755 17.21L230.379 17.6586C230.065 16.4185 228.988 15.6137 227.625 15.6137C225.84 15.6137 224.586 17.0649 224.586 19.1362C224.586 21.2074 225.84 22.6718 227.625 22.6718C229.056 22.6718 230.12 21.7879 230.379 20.429L231.755 20.8908C231.319 22.685 229.711 23.8855 227.625 23.8855C224.968 23.8855 223.087 21.9198 223.087 19.1362Z" fill="#F1EFEB"/>
<path d="M237.186 23.8591C234.528 23.8591 232.647 21.9066 232.647 19.123C232.647 16.3525 234.528 14.4 237.186 14.4C239.857 14.4 241.738 16.3525 241.738 19.123C241.738 21.9066 239.857 23.8591 237.186 23.8591ZM237.186 22.6454C238.971 22.6454 240.225 21.2206 240.225 19.1362C240.225 17.0517 238.971 15.6137 237.186 15.6137C235.4 15.6137 234.146 17.0517 234.146 19.1362C234.146 21.2206 235.4 22.6454 237.186 22.6454Z" fill="#F1EFEB"/>
<path d="M247.412 23.8591C244.754 23.8591 242.873 21.9066 242.873 19.123C242.873 16.3525 244.754 14.4 247.412 14.4C250.083 14.4 251.964 16.3525 251.964 19.123C251.964 21.9066 250.083 23.8591 247.412 23.8591ZM247.412 22.6454C249.198 22.6454 250.451 21.2206 250.451 19.1362C250.451 17.0517 249.198 15.6137 247.412 15.6137C245.627 15.6137 244.373 17.0517 244.373 19.1362C244.373 21.2206 245.627 22.6454 247.412 22.6454Z" fill="#F1EFEB"/>
<path d="M253.222 23.7668V14.5055H259.587V15.6665H254.708V17.9092H256.807C261.182 17.9092 261.182 23.7668 256.807 23.7668H253.222ZM254.708 19.0834V22.5794H256.725C259.287 22.5794 259.287 19.0834 256.725 19.0834H254.708Z" fill="#F1EFEB"/>
<path d="M271.44 23.7668H260.986V14.5187H262.471V22.5794H265.647V14.5187H267.133V22.5794H270.309V14.5187H271.794V22.5794H272.925V25.7325H271.44V23.7668Z" fill="#F1EFEB"/>
<path d="M273.821 23.7536V14.5055H280.186V15.6665H275.306V18.4897H279.79V19.6639H275.306V22.5794H280.186V23.7536H273.821Z" fill="#F1EFEB"/>
<path d="M281.062 19.1362C281.062 16.3525 282.943 14.4 285.601 14.4C287.577 14.4 289.186 15.5214 289.731 17.21L288.354 17.6586C288.041 16.4185 286.964 15.6137 285.601 15.6137C283.816 15.6137 282.562 17.0649 282.562 19.1362C282.562 21.2074 283.816 22.6718 285.601 22.6718C287.032 22.6718 288.095 21.7879 288.354 20.429L289.731 20.8908C289.295 22.685 287.686 23.8855 285.601 23.8855C282.943 23.8855 281.062 21.9198 281.062 19.1362Z" fill="#F1EFEB"/>
<path d="M293.376 23.7536V15.6665H290.35V14.5055H297.888V15.6665H294.862V23.7536H293.376Z" fill="#F1EFEB"/>
<path d="M305.506 16.9989C305.506 17.8433 305.043 18.5029 304.252 18.8855C305.37 19.2417 306.038 20.0333 306.038 21.115C306.038 22.7377 304.838 23.7536 302.916 23.7536H298.882V14.5055H302.644C304.402 14.5055 305.506 15.4686 305.506 16.9989ZM302.835 19.5847H300.368V22.5662H302.835C303.884 22.5662 304.538 21.9858 304.538 21.0755C304.538 20.152 303.884 19.5847 302.835 19.5847ZM300.368 15.6797V18.3974H302.303C303.339 18.3974 303.993 17.8697 303.993 17.0385C303.993 16.2074 303.434 15.6797 302.562 15.6797H300.368Z" fill="#F1EFEB"/>
<path d="M311.448 23.8591C308.79 23.8591 306.909 21.9066 306.909 19.123C306.909 16.3525 308.79 14.4 311.448 14.4C314.119 14.4 316 16.3525 316 19.123C316 21.9066 314.119 23.8591 311.448 23.8591ZM311.448 22.6454C313.233 22.6454 314.487 21.2206 314.487 19.1362C314.487 17.0517 313.233 15.6137 311.448 15.6137C309.662 15.6137 308.408 17.0517 308.408 19.1362C308.408 21.2206 309.662 22.6454 311.448 22.6454Z" fill="#F1EFEB"/>
<path d="M73.7637 40.6108V31.3628H75.2493V35.5449L79.3383 31.3628H81.0556L77.3756 35.1491L81.1647 40.6108H79.4473L76.3534 36.2045L75.2493 37.3391V40.6108H73.7637Z" fill="#F1EFEB"/>
<path d="M83.1683 38.2889L83.8361 31.376H89.7787V40.6108H88.3067V32.5501H85.1855L84.6267 38.4208C84.504 39.7005 83.6726 40.6108 82.2687 40.6108H81.1647V39.4367H82.0779C82.7185 39.4367 83.1001 39.0277 83.1683 38.2889Z" fill="#F1EFEB"/>
<path d="M97.5053 31.3628H98.8956V40.6108H97.4099V33.7902L92.5713 40.6108H91.1811V31.3628H92.6667V38.1834L97.5053 31.3628Z" fill="#F1EFEB"/>
<path d="M100.289 40.6108V31.3628H106.654V32.5237H101.775V35.347H106.259V36.5211H101.775V39.4367H106.654V40.6108H100.289Z" fill="#F1EFEB"/>
<path d="M107.653 40.6108V31.3628H109.139V35.347H113.882V31.3628H115.368V40.6108H113.882V36.5211H109.139V40.6108H107.653Z" fill="#F1EFEB"/>
<path d="M119.392 40.6108V32.5237H116.366V31.3628H123.904V32.5237H120.878V40.6108H119.392Z" fill="#F1EFEB"/>
<path d="M124.775 37.748V36.653H129.246V37.748H124.775Z" fill="#F1EFEB"/>
<path d="M137.865 40.624H130.505V31.376H131.991V39.4367H136.734V31.376H138.22V39.4367H139.351V42.5897H137.865V40.624Z" fill="#F1EFEB"/>
<path d="M140.252 40.6108V31.3628H146.617V32.5237H141.738V35.347H146.222V36.5211H141.738V39.4367H146.617V40.6108H140.252Z" fill="#F1EFEB"/>
<path d="M147.617 40.6108V31.3628H149.102V35.347H153.845V31.3628H155.331V40.6108H153.845V36.5211H149.102V40.6108H147.617Z" fill="#F1EFEB"/>
<path d="M159.355 40.6108V32.5237H156.329V31.3628H163.867V32.5237H160.841V40.6108H159.355Z" fill="#F1EFEB"/>
<path d="M166.347 37.2203V40.6108H164.861V31.3628H168.446C172.821 31.3628 172.821 37.2203 168.446 37.2203H166.347ZM166.347 36.033H168.364C170.926 36.033 170.926 32.5369 168.364 32.5369H166.347V36.033Z" fill="#F1EFEB"/>
<path d="M179.055 31.3628H180.446V40.6108H178.96V33.7902L174.121 40.6108H172.731V31.3628H174.217V38.1834L179.055 31.3628Z" fill="#F1EFEB"/>
<path d="M183.325 37.2203V40.6108H181.839V31.3628H185.424C189.799 31.3628 189.799 37.2203 185.424 37.2203H183.325ZM183.325 36.033H185.342C187.904 36.033 187.904 32.5369 185.342 32.5369H183.325V36.033Z" fill="#F1EFEB"/>
<path d="M194.125 40.7164C191.467 40.7164 189.587 38.7639 189.587 35.9802C189.587 33.2098 191.467 31.2572 194.125 31.2572C196.797 31.2572 198.678 33.2098 198.678 35.9802C198.678 38.7639 196.797 40.7164 194.125 40.7164ZM194.125 39.5026C195.911 39.5026 197.165 38.0778 197.165 35.9934C197.165 33.909 195.911 32.471 194.125 32.471C192.34 32.471 191.086 33.909 191.086 35.9934C191.086 38.0778 192.34 39.5026 194.125 39.5026Z" fill="#F1EFEB"/>
<path d="M206.559 33.8562C206.559 34.7005 206.096 35.3602 205.305 35.7427C206.423 36.0989 207.091 36.8905 207.091 37.9723C207.091 39.595 205.892 40.6108 203.97 40.6108H199.935V31.3628H203.697C205.455 31.3628 206.559 32.3259 206.559 33.8562ZM203.888 36.442H201.421V39.4235H203.888C204.937 39.4235 205.592 38.843 205.592 37.9327C205.592 37.0092 204.937 36.442 203.888 36.442ZM201.421 32.5369V35.2546H203.356C204.392 35.2546 205.046 34.7269 205.046 33.8958C205.046 33.0646 204.488 32.5369 203.615 32.5369H201.421Z" fill="#F1EFEB"/>
<path d="M207.553 40.6108L211.288 31.3628H212.978L216.713 40.6108H215.186L214.327 38.4472H209.925L209.08 40.6108H207.553ZM210.402 37.2731H213.864L212.133 32.9327L210.402 37.2731Z" fill="#F1EFEB"/>
<path d="M217.566 40.6108V31.3628H219.051V35.347H223.795V31.3628H225.28V40.6108H223.795V36.5211H219.051V40.6108H217.566Z" fill="#F1EFEB"/>
<path d="M226.674 40.6108V31.3628H228.159V35.347H232.903V31.3628H234.388V40.6108H232.903V36.5211H228.159V40.6108H226.674Z" fill="#F1EFEB"/>
<path d="M237.267 34.7665H239.366C243.742 34.7665 243.742 40.624 239.366 40.624H235.782V31.376H237.267V34.7665ZM239.285 35.9406H237.267V39.4367H239.285C241.847 39.4367 241.847 35.9406 239.285 35.9406ZM244.055 40.6108V31.3628H245.541V40.6108H244.055Z" fill="#F1EFEB"/>
<path d="M249.87 35.8087L246.531 31.3628H248.235L250.674 34.7137L253.101 31.3628H254.777L251.451 35.7955L255.063 40.6108H253.359L250.661 36.8641L247.948 40.6108H246.272L249.87 35.8087Z" fill="#F1EFEB"/>
<path d="M73.7637 57.4681V48.22H81.4782V57.4681H79.9925V49.3942H75.2493V57.4681H73.7637Z" fill="#F1EFEB"/>
<path d="M82.749 52.8507C82.749 50.067 84.63 48.1145 87.2878 48.1145C89.2641 48.1145 90.8724 49.2359 91.4176 50.9245L90.041 51.3731C89.7275 50.133 88.6507 49.3282 87.2878 49.3282C85.5023 49.3282 84.2483 50.7794 84.2483 52.8507C84.2483 54.9219 85.5023 56.3863 87.2878 56.3863C88.7189 56.3863 89.782 55.5024 90.041 54.1435L91.4176 54.6053C90.9814 56.3995 89.3731 57.6 87.2878 57.6C84.63 57.6 82.749 55.6343 82.749 52.8507Z" fill="#F1EFEB"/>
<path d="M98.7565 48.22H100.147V57.4681H98.6611V50.6475L93.8225 57.4681H92.4323V48.22H93.9179V55.0406L98.7565 48.22Z" fill="#F1EFEB"/>
<path d="M104.484 52.666L101.145 48.22H102.849L105.288 51.571L107.715 48.22H109.391L106.065 52.6528L109.677 57.4681H107.974L105.275 53.7214L102.563 57.4681H100.886L104.484 52.666Z" fill="#F1EFEB"/>
<path d="M114.825 57.5736C112.167 57.5736 110.286 55.6211 110.286 52.8375C110.286 50.067 112.167 48.1145 114.825 48.1145C117.496 48.1145 119.377 50.067 119.377 52.8375C119.377 55.6211 117.496 57.5736 114.825 57.5736ZM114.825 56.3599C116.61 56.3599 117.864 54.9351 117.864 52.8507C117.864 50.7662 116.61 49.3282 114.825 49.3282C113.039 49.3282 111.785 50.7662 111.785 52.8507C111.785 54.9351 113.039 56.3599 114.825 56.3599Z" fill="#F1EFEB"/>
<path d="M123.265 57.4681V49.381H120.24V48.22H127.777V49.381H124.751V57.4681H123.265Z" fill="#F1EFEB"/>
<path d="M128.771 57.4681V48.22H135.136V49.381H130.257V52.2042H134.741V53.3784H130.257V56.2939H135.136V57.4681H128.771Z" fill="#F1EFEB"/>
<path d="M137.621 54.0776V57.4681H136.136V48.22H139.72C144.095 48.22 144.095 54.0776 139.72 54.0776H137.621ZM137.621 52.8902H139.638C142.201 52.8902 142.201 49.3942 139.638 49.3942H137.621V52.8902Z" fill="#F1EFEB"/>
<path d="M143.474 57.4681L147.209 48.22H148.899L152.633 57.4681H151.107L150.248 55.3045H145.846L145.001 57.4681H143.474ZM146.323 54.1303H149.785L148.054 49.79L146.323 54.1303Z" fill="#F1EFEB"/>
<path d="M153.486 57.4681V48.22H161.201V57.4681H159.715V49.3942H154.972V57.4681H153.486Z" fill="#F1EFEB"/>
<path d="M162.594 57.4681V48.22H168.96V49.381H164.08V52.2042H168.564V53.3784H164.08V56.2939H168.96V57.4681H162.594Z" fill="#F1EFEB"/>
<path d="M176.583 50.7134C176.583 51.5578 176.119 52.2174 175.329 52.6C176.447 52.9562 177.114 53.7477 177.114 54.8295C177.114 56.4522 175.915 57.4681 173.993 57.4681H169.959V48.22H173.721C175.479 48.22 176.583 49.1831 176.583 50.7134ZM173.911 53.2992H171.444V56.2807H173.911C174.961 56.2807 175.615 55.7003 175.615 54.79C175.615 53.8665 174.961 53.2992 173.911 53.2992ZM171.444 49.3942V52.1119H173.38C174.416 52.1119 175.07 51.5842 175.07 50.753C175.07 49.9219 174.511 49.3942 173.639 49.3942H171.444Z" fill="#F1EFEB"/>
<path d="M180.739 57.4681V49.381H177.713V48.22H185.25V49.381H182.225V57.4681H180.739Z" fill="#F1EFEB"/>
<path d="M190.661 57.5736C188.003 57.5736 186.122 55.6211 186.122 52.8375C186.122 50.067 188.003 48.1145 190.661 48.1145C193.332 48.1145 195.213 50.067 195.213 52.8375C195.213 55.6211 193.332 57.5736 190.661 57.5736ZM190.661 56.3599C192.446 56.3599 193.7 54.9351 193.7 52.8507C193.7 50.7662 192.446 49.3282 190.661 49.3282C188.875 49.3282 187.621 50.7662 187.621 52.8507C187.621 54.9351 188.875 56.3599 190.661 56.3599Z" fill="#F1EFEB"/>
<path d="M203.095 50.7134C203.095 51.5578 202.632 52.2174 201.841 52.6C202.959 52.9562 203.627 53.7477 203.627 54.8295C203.627 56.4522 202.427 57.4681 200.505 57.4681H196.471V48.22H200.233C201.991 48.22 203.095 49.1831 203.095 50.7134ZM200.424 53.2992H197.957V56.2807H200.424C201.473 56.2807 202.127 55.7003 202.127 54.79C202.127 53.8665 201.473 53.2992 200.424 53.2992ZM197.957 49.3942V52.1119H199.892C200.928 52.1119 201.582 51.5842 201.582 50.753C201.582 49.9219 201.023 49.3942 200.151 49.3942H197.957Z" fill="#F1EFEB"/>
</svg>
