<svg width="214" height="72" viewBox="0 0 214 72" fill="none" xmlns="http://www.w3.org/2000/svg">
<g clip-path="url(#clip0_106238_35809)">
<path d="M78.3182 49.5825H72.2852V17.0527H100.547V49.5825H94.5145V21.9732H78.3182V49.5825Z" fill="#F1EFEB"/>
<path d="M191.771 49.5825H185.738V17.0527H214.001V49.5825H207.968V21.9732H191.771V49.5825Z" fill="#F1EFEB"/>
<path d="M131.279 37.9615C130.607 45.0926 125.464 49.5825 117.817 49.5825C108.424 49.5825 102.566 43.2878 102.566 33.2956C102.566 23.3034 108.29 17.0527 117.459 17.0527C125.42 17.0527 130.875 21.4986 131.636 28.7177H125.599C125.017 24.4919 121.931 21.8067 117.682 21.8067C112.136 21.8067 108.604 26.2526 108.604 33.2956C108.604 40.3386 112.181 44.8284 117.817 44.8284C121.886 44.8284 124.793 42.1433 125.241 37.9615H131.279Z" fill="#F1EFEB"/>
<path d="M133.654 17.0527H139.604V29.764H139.742L152.925 17.0527H160.706L145.143 32.133L160.706 49.5825H152.925L139.742 34.5933H139.604V49.5825H133.654V17.0527Z" fill="#F1EFEB"/>
<path d="M167.022 27.8965V45.5772H175.946V27.8965H181.05V45.5772H184.123V54.0006H179.017V49.5803H161.916V27.8965H167.022Z" fill="#F1EFEB"/>
<path d="M41.5004 42.6904C46.1497 42.6904 49.9188 38.9248 49.9188 34.2798C49.9188 29.6347 46.1497 25.8691 41.5004 25.8691C36.8511 25.8691 33.082 29.6347 33.082 34.2798C33.082 38.9248 36.8511 42.6904 41.5004 42.6904Z" fill="#EEC460"/>
<path d="M3.3922 51.9278C6.08608 50.2051 9.19937 48.2675 11.9353 46.5689C12.3157 46.3315 13.2642 45.6739 13.5394 45.5448C14.2158 45.5448 14.978 46.9234 15.4349 47.4805C25.6046 59.8652 43.9355 61.7921 56.085 51.028C60.7723 46.8752 64.7063 39.7337 65.2505 33.4512C65.4354 31.311 65.1167 28.9365 65.2535 26.7708C65.4941 26.7258 65.5798 26.8204 65.6699 27.0291C65.9871 27.7696 66.396 31.0226 66.4546 31.9524C67.1341 42.682 65.1032 52.5719 57.8138 60.7138C43.217 77.0199 17.9288 74.9023 3.69136 59.2119C3.05698 58.5135 0.208267 55.0892 0.038396 54.4404C-0.0112121 54.2511 -0.0277484 54.1279 0.0819909 53.9523C0.277416 53.6383 2.85704 52.2717 3.3922 51.9278C3.50495 51.8557 3.33057 51.9669 3.3922 51.9278Z" fill="#80C7DB"/>
<path d="M46.7608 53.6567C46.6466 53.9856 46.1805 54.0021 45.8919 54.0637C30.8306 57.2868 14.2721 48.5157 10.6265 33.2098C7.55388 20.3069 13.1265 7.76459 23.5983 0.250573C23.917 0.0222842 24.1155 -0.105495 24.8129 0.11228C25.3106 0.268478 25.9178 1.60079 26.2531 2.12645C27.5564 4.17955 28.8628 6.22665 30.1616 8.28425C30.5013 8.82344 31.2815 10.1014 31.2771 10.6256C31.2696 11.3555 30.4728 11.9624 30.0083 12.3619C20.7962 20.2905 18.2933 33.5402 25.5015 43.7291C29.1709 48.9152 35.6125 52.9929 42.027 53.502C43.5889 53.6266 45.2275 53.2992 46.7594 53.6567H46.7608Z" fill="#80C7DB"/>
<path d="M24.6658 30.6755C24.0676 30.24 25.0266 24.9308 25.2821 24.0086C28.9081 10.864 45.4546 8.32276 54.4893 17.7742C54.7674 18.0656 56.4661 20.0796 56.5158 20.2689C56.594 20.5603 56.3625 20.7525 56.1565 20.9132C54.7208 22.0306 52.5426 23.0084 50.9822 24.0026C50.8364 24.0957 50.6423 24.2145 50.5205 24.2926C49.7689 24.4428 49.3677 23.6391 48.9242 23.1826C41.2771 15.3321 28.6029 17.8118 25.4897 28.4196C25.4144 28.6735 25.1574 31.0315 24.6658 30.6726V30.6755Z" fill="#80C7DB"/>
</g>
<defs>
<clipPath id="clip0_106238_35809">
<rect width="214" height="72" fill="white"/>
</clipPath>
</defs>
</svg>
