<svg width="336" height="48" viewBox="0 0 336 48" fill="none" xmlns="http://www.w3.org/2000/svg">
<g clip-path="url(#clip0_19_4531)">
<path d="M27.837 28.4608C30.9556 28.4608 33.4837 25.9504 33.4837 22.8537C33.4837 19.757 30.9556 17.2466 27.837 17.2466C24.7184 17.2466 22.1902 19.757 22.1902 22.8537C22.1902 25.9504 24.7184 28.4608 27.837 28.4608Z" fill="#EEC460"/>
<path d="M2.27538 34.6185C4.08235 33.4701 6.17065 32.1784 8.00585 31.0459C8.26097 30.8877 8.89724 30.4493 9.08173 30.3632C9.53548 30.3632 10.0468 31.2822 10.3532 31.6537C17.1747 39.9102 29.4705 41.1948 37.62 34.0187C40.7641 31.2502 43.4029 26.4892 43.768 22.3008C43.892 20.874 43.6782 19.291 43.77 17.8472C43.9313 17.8172 43.9888 17.8802 44.0493 18.0194C44.262 18.513 44.5363 20.6818 44.5757 21.3016C45.0314 28.4546 43.6691 35.048 38.7797 40.4759C28.9886 51.3466 12.0261 49.9349 2.47604 39.4746C2.05052 39.009 0.139699 36.7261 0.0257548 36.2936C-0.00752073 36.1674 -0.0186127 36.0853 0.0549969 35.9682C0.186082 35.7589 1.91641 34.8478 2.27538 34.6185C2.35101 34.5705 2.23404 34.6446 2.27538 34.6185Z" fill="#80C7DB"/>
<path d="M31.3663 35.7711C31.2897 35.9904 30.9771 36.0014 30.7835 36.0425C20.6808 38.1912 9.57385 32.3438 7.1286 22.1398C5.06753 13.5379 8.80548 5.1764 15.8296 0.167049C16.0434 0.0148563 16.1765 -0.0703304 16.6444 0.0748535C16.9781 0.178986 17.3855 1.06719 17.6104 1.41764C18.4846 2.78637 19.3609 4.1511 20.2321 5.52282C20.46 5.8823 20.9833 6.7343 20.9803 7.08376C20.9752 7.57038 20.4408 7.97494 20.1292 8.24129C13.9501 13.5269 12.2712 22.3601 17.1062 29.1527C19.5676 32.6101 23.8883 35.3286 28.191 35.668C29.2386 35.7511 30.3388 35.5328 31.3663 35.7711Z" fill="#80C7DB"/>
<path d="M16.5446 20.4504C16.1433 20.16 16.7866 16.6205 16.958 16.0057C19.3902 7.24265 30.4891 5.54851 36.5493 11.8494C36.7358 12.0437 37.8753 13.3864 37.9085 13.5126C37.961 13.7068 37.8057 13.835 37.6675 13.9421C36.7046 14.6871 35.2434 15.3389 34.1968 16.0018C34.099 16.0638 33.9688 16.143 33.8871 16.1951C33.383 16.2952 33.1138 15.7594 32.8164 15.455C27.6869 10.2214 19.1855 11.8745 17.0972 18.9465C17.0467 19.1157 16.8743 20.6877 16.5446 20.4484V20.4504Z" fill="#80C7DB"/>
<path d="M51.0381 11.1654V0.125977H60.2424V11.1654H57.9887V1.88725H53.292V11.1654H51.0381Z" fill="#F1EFEB"/>
<path d="M64.0091 7.26544V11.1654H61.7393V0.125977H66.0422C71.322 0.125977 71.322 7.26544 66.0422 7.26544H64.0091ZM64.0091 5.50415H65.9476C68.5009 5.50415 68.5009 1.88725 65.9476 1.88725H64.0091V5.50415Z" fill="#F1EFEB"/>
<path d="M76.2726 11.291C73.1207 11.291 70.8982 8.96363 70.8982 5.64553C70.8982 2.3274 73.1207 0 76.2726 0C79.4246 0 81.6471 2.3274 81.6471 5.64553C81.6471 8.96363 79.4246 11.291 76.2726 11.291ZM76.2726 9.48256C78.0691 9.48256 79.346 7.91004 79.346 5.66123C79.346 3.39675 78.0691 1.80845 76.2726 1.80845C74.46 1.80845 73.1836 3.39675 73.1836 5.66123C73.1836 7.91004 74.46 9.48256 76.2726 9.48256Z" fill="#F1EFEB"/>
<path d="M89.7178 11.165H87.4641V9.16785H86.5185C83.9496 9.16785 82.5469 7.40662 82.5469 5.58241C82.5469 3.75823 83.9496 2.01268 86.5185 2.01268H87.4641V0.03125H89.7178V2.01268H90.6634C93.2323 2.01268 94.6351 3.75823 94.6351 5.58241C94.6351 7.40662 93.2323 9.16785 90.6634 9.16785H89.7178V11.165ZM84.8479 5.58241C84.8479 6.6046 85.3992 7.39086 86.6132 7.39086H87.4641V3.78969H86.6132C85.3992 3.78969 84.8479 4.56024 84.8479 5.58241ZM89.7178 3.78969V7.39086H90.5687C91.7827 7.39086 92.334 6.6046 92.334 5.58241C92.334 4.56024 91.7827 3.78969 90.5687 3.78969H89.7178Z" fill="#F1EFEB"/>
<path d="M95.6748 11.1654V0.125977H103.382V1.87152H97.9285V4.70215H102.94V6.46342H97.9285V9.4041H103.382V11.1654H95.6748Z" fill="#F1EFEB"/>
<path d="M104.28 5.66123C104.28 2.34313 106.502 0 109.654 0C111.908 0 113.925 1.44676 114.556 3.4911L112.475 4.1673C112.191 2.78344 111.009 1.80845 109.654 1.80845C107.841 1.80845 106.564 3.39675 106.564 5.66123C106.564 7.92574 107.841 9.51402 109.654 9.51402C111.025 9.51402 112.207 8.47612 112.475 7.01363L114.54 7.72132C114.036 9.82852 112.018 11.3068 109.654 11.3068C106.502 11.3068 104.28 8.97934 104.28 5.66123Z" fill="#F1EFEB"/>
<path d="M115.473 5.66123C115.473 2.34313 117.696 0 120.848 0C123.101 0 125.119 1.44676 125.749 3.4911L123.669 4.1673C123.385 2.78344 122.203 1.80845 120.848 1.80845C119.035 1.80845 117.759 3.39675 117.759 5.66123C117.759 7.92574 119.035 9.51402 120.848 9.51402C122.219 9.51402 123.401 8.47612 123.669 7.01363L125.734 7.72132C125.229 9.82852 123.212 11.3068 120.848 11.3068C117.696 11.3068 115.473 8.97934 115.473 5.66123Z" fill="#F1EFEB"/>
<path d="M133.98 0.125977H136.013V11.1654H133.759V4.04167L128.842 11.1654H126.809V0.125977H129.063V7.24968L133.98 0.125977Z" fill="#F1EFEB"/>
<path d="M142.743 11.291C139.591 11.291 137.368 8.96363 137.368 5.64553C137.368 2.3274 139.591 0 142.743 0C145.895 0 148.117 2.3274 148.117 5.64553C148.117 8.96363 145.895 11.291 142.743 11.291ZM142.743 9.48256C144.54 9.48256 145.816 7.91004 145.816 5.66123C145.816 3.39675 144.54 1.80845 142.743 1.80845C140.93 1.80845 139.654 3.39675 139.654 5.66123C139.654 7.91004 140.93 9.48256 142.743 9.48256Z" fill="#F1EFEB"/>
<path d="M149.458 11.1654V0.125977H151.712V4.70215H156.408V0.125977H158.663V11.1654H156.408V6.46342H151.712V11.1654H149.458Z" fill="#F1EFEB"/>
<path d="M159.466 11.1654L163.801 0.125977H166.164L170.499 11.1654H168.166L167.346 9.01097H162.618L161.799 11.1654H159.466ZM163.296 7.24968H166.668L164.982 2.81507L163.296 7.24968Z" fill="#F1EFEB"/>
<path d="M172.852 8.20875L173.625 0.157227H180.953V11.1652H178.7V1.9185H175.705L175.09 8.39747C174.933 9.9858 174.003 11.1652 172.206 11.1652H170.535V9.4039H171.859C172.458 9.4039 172.773 9.05794 172.852 8.20875Z" fill="#F1EFEB"/>
<path d="M184.709 4.0572H186.758C192.038 4.0572 192.038 11.1966 186.758 11.1966H182.455V0.157227H184.709V4.0572ZM186.663 5.81846H184.709V9.43536H186.663C189.216 9.43536 189.216 5.81846 186.663 5.81846Z" fill="#F1EFEB"/>
<path d="M191.756 11.1654V0.125977H194.009V4.70215H198.706V0.125977H200.96V11.1654H198.706V6.46342H194.009V11.1654H191.756Z" fill="#F1EFEB"/>
<path d="M207.69 11.291C204.537 11.291 202.315 8.96363 202.315 5.64553C202.315 2.3274 204.537 0 207.69 0C210.842 0 213.064 2.3274 213.064 5.64553C213.064 8.96363 210.842 11.291 207.69 11.291ZM207.69 9.48256C209.486 9.48256 210.763 7.91004 210.763 5.66123C210.763 3.39675 209.486 1.80845 207.69 1.80845C205.877 1.80845 204.6 3.39675 204.6 5.66123C204.6 7.91004 205.877 9.48256 207.69 9.48256Z" fill="#F1EFEB"/>
<path d="M214.405 11.1654V0.125977H222.112V1.87152H216.659V4.70215H221.671V6.46342H216.659V9.4041H222.112V11.1654H214.405Z" fill="#F1EFEB"/>
<path d="M226.785 5.66123C226.785 2.34313 229.007 0 232.159 0C234.413 0 236.43 1.44676 237.061 3.4911L234.981 4.1673C234.697 2.78344 233.515 1.80845 232.159 1.80845C230.347 1.80845 229.07 3.39675 229.07 5.66123C229.07 7.92574 230.347 9.51402 232.159 9.51402C233.53 9.51402 234.713 8.47612 234.981 7.01363L237.045 7.72132C236.541 9.82852 234.523 11.3068 232.159 11.3068C229.007 11.3068 226.785 8.97934 226.785 5.66123Z" fill="#F1EFEB"/>
<path d="M243.353 11.291C240.201 11.291 237.979 8.96363 237.979 5.64553C237.979 2.3274 240.201 0 243.353 0C246.505 0 248.727 2.3274 248.727 5.64553C248.727 8.96363 246.505 11.291 243.353 11.291ZM243.353 9.48256C245.149 9.48256 246.426 7.91004 246.426 5.66123C246.426 3.39675 245.149 1.80845 243.353 1.80845C241.54 1.80845 240.264 3.39675 240.264 5.66123C240.264 7.91004 241.54 9.48256 243.353 9.48256Z" fill="#F1EFEB"/>
<path d="M255.301 11.291C252.149 11.291 249.927 8.96363 249.927 5.64553C249.927 2.3274 252.149 0 255.301 0C258.453 0 260.675 2.3274 260.675 5.64553C260.675 8.96363 258.453 11.291 255.301 11.291ZM255.301 9.48256C257.098 9.48256 258.374 7.91004 258.374 5.66123C258.374 3.39675 257.098 1.80845 255.301 1.80845C253.489 1.80845 252.212 3.39675 252.212 5.66123C252.212 7.91004 253.489 9.48256 255.301 9.48256Z" fill="#F1EFEB"/>
<path d="M262.017 11.1968V0.125977H269.723V1.87152H264.27V4.0574H266.319C271.599 4.0574 271.599 11.1968 266.319 11.1968H262.017ZM264.27 5.81866V9.43556H266.224C268.778 9.43556 268.778 5.81866 266.224 5.81866H264.27Z" fill="#F1EFEB"/>
<path d="M282.972 11.1966H270.994V0.157227H273.248V9.4039H276.211V0.157227H278.464V9.4039H281.428V0.157227H283.681V9.4039H285.242V13.5241H282.972V11.1966Z" fill="#F1EFEB"/>
<path d="M286.22 11.1654V0.125977H293.927V1.87152H288.474V4.70215H293.486V6.46342H288.474V9.4041H293.927V11.1654H286.22Z" fill="#F1EFEB"/>
<path d="M294.825 5.66123C294.825 2.34313 297.047 0 300.199 0C302.453 0 304.471 1.44676 305.101 3.4911L303.021 4.1673C302.737 2.78344 301.555 1.80845 300.199 1.80845C298.387 1.80845 297.11 3.39675 297.11 5.66123C297.11 7.92574 298.387 9.51402 300.199 9.51402C301.57 9.51402 302.753 8.47612 303.021 7.01363L305.085 7.72132C304.581 9.82852 302.563 11.3068 300.199 11.3068C297.047 11.3068 294.825 8.97934 294.825 5.66123Z" fill="#F1EFEB"/>
<path d="M309.092 11.1654V1.87152H305.719V0.125977H314.735V1.87152H311.362V11.1654H309.092Z" fill="#F1EFEB"/>
<path d="M323.76 3.19248C323.76 4.15175 323.255 4.90658 322.357 5.36261C323.618 5.7872 324.359 6.6993 324.359 7.92591C324.359 9.92308 322.893 11.1654 320.576 11.1654H315.769V0.125977H320.261C322.404 0.125977 323.76 1.3054 323.76 3.19248ZM320.482 6.36909H318.023V9.3884H320.482C321.459 9.3884 322.074 8.80655 322.074 7.87875C322.074 6.95094 321.459 6.36909 320.482 6.36909ZM318.023 1.88725V4.6078H319.883C320.844 4.6078 321.459 4.07312 321.459 3.23966C321.459 2.4062 320.954 1.88725 320.166 1.88725H318.023Z" fill="#F1EFEB"/>
<path d="M330.625 11.291C327.473 11.291 325.251 8.96363 325.251 5.64553C325.251 2.3274 327.473 0 330.625 0C333.777 0 336 2.3274 336 5.64553C336 8.96363 333.777 11.291 330.625 11.291ZM330.625 9.48256C332.422 9.48256 333.699 7.91004 333.699 5.66123C333.699 3.39675 332.422 1.80845 330.625 1.80845C328.813 1.80845 327.536 3.39675 327.536 5.66123C327.536 7.91004 328.813 9.48256 330.625 9.48256Z" fill="#F1EFEB"/>
<path d="M51.0381 29.5121V18.4727H53.292V22.8287L57.4213 18.4727H60.0219L55.735 23.0174L60.116 29.5121H57.4842L54.1902 24.6686L53.292 25.6121V29.5121H51.0381Z" fill="#F1EFEB"/>
<path d="M62.3608 26.5554L63.1332 18.5039H70.4617V29.5119H68.2081V20.2651H65.2137L64.5989 26.7441C64.4413 28.3324 63.5113 29.5119 61.7148 29.5119H60.0442V27.7506H61.3679C61.9666 27.7506 62.2818 27.4046 62.3608 26.5554Z" fill="#F1EFEB"/>
<path d="M79.1348 18.4727H81.168V29.5121H78.9138V22.3884L73.9965 29.5121H71.9634V18.4727H74.2171V25.5964L79.1348 18.4727Z" fill="#F1EFEB"/>
<path d="M82.6648 29.5121V18.4727H90.3715V20.2182H84.9185V23.0488H89.9304V24.8101H84.9185V27.7508H90.3715V29.5121H82.6648Z" fill="#F1EFEB"/>
<path d="M91.4111 29.5121V18.4727H93.6648V23.0488H98.3616V18.4727H100.615V29.5121H98.3616V24.8101H93.6648V29.5121H91.4111Z" fill="#F1EFEB"/>
<path d="M105.044 29.5121V20.2182H101.671V18.4727H110.686V20.2182H107.313V29.5121H105.044Z" fill="#F1EFEB"/>
<path d="M111.579 26.225V24.5581H117.175V26.225H111.579Z" fill="#F1EFEB"/>
<path d="M127.008 29.5433H118.513V18.5039H120.767V27.7506H125.464V18.5039H127.717V27.7506H129.278V31.8707H127.008V29.5433Z" fill="#F1EFEB"/>
<path d="M130.261 29.5121V18.4727H137.968V20.2182H132.514V23.0488H137.526V24.8101H132.514V27.7508H137.968V29.5121H130.261Z" fill="#F1EFEB"/>
<path d="M139.008 29.5121V18.4727H141.262V23.0488H145.958V18.4727H148.212V29.5121H145.958V24.8101H141.262V29.5121H139.008Z" fill="#F1EFEB"/>
<path d="M152.64 29.5121V20.2182H149.268V18.4727H158.283V20.2182H154.91V29.5121H152.64Z" fill="#F1EFEB"/>
<path d="M161.587 25.6121V29.5121H159.318V18.4727H163.62C168.9 18.4727 168.9 25.6121 163.62 25.6121H161.587ZM161.587 23.8508H163.525C166.079 23.8508 166.079 20.2339 163.525 20.2339H161.587V23.8508Z" fill="#F1EFEB"/>
<path d="M175.789 18.4727H177.823V29.5121H175.568V22.3884L170.651 29.5121H168.618V18.4727H170.872V25.5964L175.789 18.4727Z" fill="#F1EFEB"/>
<path d="M181.589 25.6121V29.5121H179.319V18.4727H183.622C188.902 18.4727 188.902 25.6121 183.622 25.6121H181.589ZM181.589 23.8508H183.527C186.08 23.8508 186.08 20.2339 183.527 20.2339H181.589V23.8508Z" fill="#F1EFEB"/>
<path d="M193.853 29.6377C190.7 29.6377 188.478 27.3103 188.478 23.9922C188.478 20.6741 190.7 18.3467 193.853 18.3467C197.005 18.3467 199.227 20.6741 199.227 23.9922C199.227 27.3103 197.005 29.6377 193.853 29.6377ZM193.853 27.8292C195.649 27.8292 196.926 26.2567 196.926 24.0079C196.926 21.7434 195.649 20.1551 193.853 20.1551C192.04 20.1551 190.763 21.7434 190.763 24.0079C190.763 26.2567 192.04 27.8292 193.853 27.8292Z" fill="#F1EFEB"/>
<path d="M208.559 21.5392C208.559 22.4984 208.054 23.2532 207.156 23.7093C208.417 24.1339 209.157 25.046 209.157 26.2726C209.157 28.2697 207.692 29.5121 205.375 29.5121H200.568V18.4727H205.06C207.203 18.4727 208.559 19.652 208.559 21.5392ZM205.28 24.7157H202.822V27.7351H205.28C206.258 27.7351 206.873 27.1532 206.873 26.2254C206.873 25.2976 206.258 24.7157 205.28 24.7157ZM202.822 20.2339V22.9544H204.682C205.643 22.9544 206.258 22.4198 206.258 21.5863C206.258 20.7529 205.753 20.2339 204.965 20.2339H202.822Z" fill="#F1EFEB"/>
<path d="M209.499 29.5121L213.833 18.4727H216.197L220.531 29.5121H218.198L217.379 27.3577H212.65L211.831 29.5121H209.499ZM213.328 25.5964H216.701L215.014 21.1618L213.328 25.5964Z" fill="#F1EFEB"/>
<path d="M221.324 29.5121V18.4727H223.578V23.0488H228.275V18.4727H230.528V29.5121H228.275V24.8101H223.578V29.5121H221.324Z" fill="#F1EFEB"/>
<path d="M232.026 29.5121V18.4727H234.279V23.0488H238.976V18.4727H241.23V29.5121H238.976V24.8101H234.279V29.5121H232.026Z" fill="#F1EFEB"/>
<path d="M244.981 22.4041H247.029C252.31 22.4041 252.31 29.5435 247.029 29.5435H242.727V18.5041H244.981V22.4041ZM246.935 24.1654H244.981V27.7823H246.935C249.488 27.7823 249.488 24.1654 246.935 24.1654ZM252.498 29.5121V18.4727H254.752V29.5121H252.498Z" fill="#F1EFEB"/>
<path d="M259.491 23.7879L255.614 18.4727H258.199L260.721 22.0581L263.242 18.4727H265.78L261.919 23.7722L266.111 29.5121H263.526L260.705 25.4706L257.868 29.5121H255.33L259.491 23.7879Z" fill="#F1EFEB"/>
<path d="M51.0381 47.8583V36.8188H60.2424V47.8583H57.9887V38.5801H53.292V47.8583H51.0381Z" fill="#F1EFEB"/>
<path d="M61.5972 42.3546C61.5972 39.0365 63.8197 36.6934 66.9716 36.6934C69.2258 36.6934 71.2429 38.1401 71.8733 40.1845L69.7928 40.8606C69.5093 39.4768 68.3271 38.5018 66.9716 38.5018C65.1595 38.5018 63.8826 40.0901 63.8826 42.3546C63.8826 44.6191 65.1595 46.2074 66.9716 46.2074C68.3432 46.2074 69.5249 45.1695 69.7928 43.707L71.8576 44.4147C71.3531 46.5219 69.3361 48.0001 66.9716 48.0001C63.8197 48.0001 61.5972 45.6727 61.5972 42.3546Z" fill="#F1EFEB"/>
<path d="M80.1043 36.8188H82.1375V47.8583H79.8838V40.7346L74.9665 47.8583H72.9333V36.8188H75.187V43.9426L80.1043 36.8188Z" fill="#F1EFEB"/>
<path d="M86.8809 42.1342L83.0039 36.8188H85.5889L88.1105 40.4043L90.6321 36.8188H93.1698L89.3083 42.1184L93.5006 47.8583H90.9161L88.0949 43.8168L85.2576 47.8583H82.7205L86.8809 42.1342Z" fill="#F1EFEB"/>
<path d="M99.3068 47.9844C96.1543 47.9844 93.9324 45.657 93.9324 42.3389C93.9324 39.0208 96.1543 36.6934 99.3068 36.6934C102.459 36.6934 104.681 39.0208 104.681 42.3389C104.681 45.657 102.459 47.9844 99.3068 47.9844ZM99.3068 46.176C101.103 46.176 102.38 44.6034 102.38 42.3546C102.38 40.0901 101.103 38.5018 99.3068 38.5018C97.4942 38.5018 96.2178 40.0901 96.2178 42.3546C96.2178 44.6034 97.4942 46.176 99.3068 46.176Z" fill="#F1EFEB"/>
<path d="M108.954 47.8583V38.5644H105.581V36.8188H114.596V38.5644H111.223V47.8583H108.954Z" fill="#F1EFEB"/>
<path d="M115.63 47.8583V36.8188H123.338V38.5644H117.885V41.395H122.897V43.1563H117.885V46.097H123.338V47.8583H115.63Z" fill="#F1EFEB"/>
<path d="M126.646 43.9583V47.8583H124.377V36.8188H128.68C133.959 36.8188 133.959 43.9583 128.68 43.9583H126.646ZM126.646 42.197H128.585C131.138 42.197 131.138 38.5801 128.585 38.5801H126.646V42.197Z" fill="#F1EFEB"/>
<path d="M132.984 47.8583L137.318 36.8188H139.683L144.017 47.8583H141.684L140.865 45.7039H136.137L135.317 47.8583H132.984ZM136.814 43.9426H140.187L138.501 39.5079L136.814 43.9426Z" fill="#F1EFEB"/>
<path d="M144.81 47.8583V36.8188H154.014V47.8583H151.761V38.5801H147.064V47.8583H144.81Z" fill="#F1EFEB"/>
<path d="M155.511 47.8583V36.8188H163.218V38.5644H157.765V41.395H162.777V43.1563H157.765V46.097H163.218V47.8583H155.511Z" fill="#F1EFEB"/>
<path d="M172.249 39.8854C172.249 40.8446 171.744 41.5995 170.846 42.0555C172.107 42.4801 172.848 43.3922 172.848 44.6188C172.848 46.616 171.382 47.8583 169.065 47.8583H164.258V36.8188H168.75C170.894 36.8188 172.249 37.9983 172.249 39.8854ZM168.971 43.062H166.512V46.0813H168.971C169.947 46.0813 170.562 45.4994 170.562 44.5716C170.562 43.6438 169.947 43.062 168.971 43.062ZM166.512 38.5801V41.3007H168.371C169.333 41.3007 169.947 40.766 169.947 39.9325C169.947 39.0991 169.443 38.5801 168.655 38.5801H166.512Z" fill="#F1EFEB"/>
<path d="M176.813 47.8583V38.5644H173.44V36.8188H182.456V38.5644H179.083V47.8583H176.813Z" fill="#F1EFEB"/>
<path d="M188.723 47.9844C185.571 47.9844 183.348 45.657 183.348 42.3389C183.348 39.0208 185.571 36.6934 188.723 36.6934C191.875 36.6934 194.097 39.0208 194.097 42.3389C194.097 45.657 191.875 47.9844 188.723 47.9844ZM188.723 46.176C190.52 46.176 191.796 44.6034 191.796 42.3546C191.796 40.0901 190.52 38.5018 188.723 38.5018C186.911 38.5018 185.634 40.0901 185.634 42.3546C185.634 44.6034 186.911 46.176 188.723 46.176Z" fill="#F1EFEB"/>
<path d="M203.429 39.8854C203.429 40.8446 202.925 41.5995 202.027 42.0555C203.287 42.4801 204.028 43.3922 204.028 44.6188C204.028 46.616 202.562 47.8583 200.246 47.8583H195.439V36.8188H199.931C202.074 36.8188 203.429 37.9983 203.429 39.8854ZM200.151 43.062H197.692V46.0813H200.151C201.128 46.0813 201.743 45.4994 201.743 44.5716C201.743 43.6438 201.128 43.062 200.151 43.062ZM197.692 38.5801V41.3007H199.552C200.514 41.3007 201.128 40.766 201.128 39.9325C201.128 39.0991 200.624 38.5801 199.836 38.5801H197.692Z" fill="#F1EFEB"/>
</g>
<defs>
<clipPath id="clip0_19_4531">
<rect width="336" height="48" fill="white"/>
</clipPath>
</defs>
</svg>
