<svg width="65" height="65" viewBox="0 0 65 65" fill="none" xmlns="http://www.w3.org/2000/svg">
<rect width="65" height="65" rx="8" fill="#F1EFEB"/>
<path d="M49.4535 16.0563C50.6351 15.9069 53.3074 15.9084 54.4992 16.0389C55.2994 16.1258 55.7978 16.3665 56 17.1985L55.9552 56.0079C55.792 56.4036 55.5248 56.8124 55.0596 56.8863C53.2107 56.695 50.7593 57.1675 48.9855 56.8863C48.4785 56.8066 48.1592 56.2949 48.0451 55.831L48.035 17.3C48.1795 16.4505 48.6388 16.1592 49.4521 16.0563H49.4535ZM54.2363 17.8015H49.8103V55.1164H54.2363V17.8015Z" fill="#1E1913"/>
<path d="M39.7147 26.7164C40.8963 26.5671 43.5686 26.5686 44.7603 26.699C45.5606 26.786 46.0589 27.0266 46.2612 27.8587L46.2713 55.7281C46.2265 56.1717 45.8654 56.7675 45.4147 56.8689L39.2467 56.8863C38.7396 56.8066 38.4204 56.2949 38.3063 55.831L38.2962 27.9616C38.4406 27.1121 38.9 26.8208 39.7132 26.7179L39.7147 26.7164ZM44.4974 28.4631H40.0715V55.1164H44.4974V28.4631Z" fill="#1E1913"/>
<path d="M48.2589 11.3596C46.774 13.5108 45.3641 15.7156 43.768 17.7899C36.4024 27.3571 26.4137 35.1993 15.3575 40.0321C14.4445 40.4308 11.1265 41.9108 10.3566 41.9093C9.47543 41.9093 9.15764 40.9106 9.80045 40.3423C25.1339 34.8789 38.4262 24.1129 46.8216 10.1391C46.0922 10.1246 44.8846 10.7145 44.2331 10.3464C43.7752 10.0883 43.6741 9.3418 44.0612 8.97651C44.3804 8.67645 46.8635 8.26187 47.4659 8.172C48.269 8.05169 49.2239 7.6719 49.5604 8.6663C49.9793 9.90859 50.0097 11.7177 50.3173 13.031C50.1844 13.6847 49.3914 14.0152 48.8671 13.5818C48.4178 13.2107 48.4366 11.9162 48.2618 11.3567L48.2589 11.3596Z" fill="#1E1913"/>
<path d="M29.9758 35.6008C31.1589 35.4515 33.8283 35.453 35.0215 35.5834C35.777 35.6661 36.2638 35.8719 36.5035 36.6503L36.531 55.7281C36.4862 56.1717 36.1251 56.7675 35.6744 56.8689L29.5064 56.8863C29.0167 56.8095 28.7321 56.35 28.5848 55.9238L28.5573 36.846C28.7018 35.9966 29.1611 35.7052 29.9744 35.6023L29.9758 35.6008ZM34.7586 37.3476H30.3326V55.1164H34.7586V37.3476Z" fill="#1E1913"/>
<path d="M20.237 40.9323C21.4171 40.783 24.0924 40.7845 25.2826 40.9149C25.9991 40.9932 26.4816 41.1759 26.7387 41.8977L26.7936 55.7295C26.7372 56.1963 26.4498 56.6442 26.0222 56.8428L19.7704 56.8863C19.3082 56.8138 19.0409 56.4065 18.8748 56.0079L18.8199 42.1761C18.9644 41.3266 19.4237 41.0352 20.237 40.9323ZM25.0197 42.6776H20.5938V55.1164H25.0197V42.6776Z" fill="#1E1913"/>
<path d="M10.4981 46.2624C11.6956 46.1117 14.225 46.1233 15.4456 46.2334C16.37 46.3175 16.9608 46.6031 17.0576 47.6149C17.3032 50.1763 16.8612 53.1262 17.0547 55.7296C16.9247 56.4152 16.6055 56.8327 15.8948 56.8979C14.5659 57.0197 11.4298 57.0487 10.1327 56.895C9.46676 56.8168 9.13886 56.2529 9.07819 55.6209C8.82973 53.0319 9.26886 50.0371 9.09119 47.4047C9.29342 46.606 9.72677 46.361 10.4981 46.2624ZM15.2809 48.0077H10.8549V55.115H15.2809V48.0077Z" fill="#1E1913"/>
</svg>
