<svg width="65" height="65" viewBox="0 0 65 65" fill="none" xmlns="http://www.w3.org/2000/svg">
<rect width="65" height="65" rx="8" fill="#F1EFEB"/>
<path d="M44.4515 25.8461V29.9431C44.4515 30.2951 43.5367 30.8719 43.1675 30.4874L36.622 25.8705C33.7737 25.6173 30.5468 26.125 27.7437 25.8447C26.591 25.7297 25.5901 24.8862 25.4862 23.7231C25.4862 19.4014 25.4862 14.4596 25.4862 10.127C25.575 9.14542 26.189 8.44138 27.0914 8.0853L47.7564 8C49.013 8.11102 49.7678 9.16031 49.899 10.3396C49.899 14.6383 49.899 19.1794 49.899 23.4063C49.8197 24.2674 49.4205 25.0432 48.6588 25.4981C48.5467 25.5658 47.9191 25.8461 47.8576 25.8461H44.4515ZM42.7765 28.1275V24.7562C42.7765 24.5396 43.2291 24.2282 43.4642 24.1916C44.6661 24.0061 46.4957 24.4136 47.6265 24.1632C47.9492 24.0914 48.0586 23.8409 48.1748 23.5661L48.1269 10.123C48.0066 9.82915 47.7906 9.622 47.4446 9.65721L27.4839 9.71813C27.2624 9.863 27.1325 9.85082 27.1612 10.127C27.1612 14.4596 27.1612 19.1794 27.1612 23.4144C27.209 23.9046 27.4552 24.1307 27.9515 24.1889C30.7874 24.522 34.2482 23.9168 37.1511 24.2078L42.7778 28.1275H42.7765Z" fill="#1E1913"/>
<path d="M15.8531 48.1466V56.4963C15.8531 56.5261 15.4867 56.8849 15.432 56.9092C14.8672 57.1651 14.2082 56.7996 14.1863 56.1754C14.3777 53.2117 13.8978 49.8675 14.1726 46.9497C14.2287 46.3567 14.4926 45.7772 15.1995 45.9316C16.4083 46.1956 17.9616 47.6714 19.266 47.93L24.3882 48.1493C25.0445 48.0248 24.4087 46.8604 24.0778 46.5896C23.0591 45.7583 19.6475 45.65 18.3294 45.0218C16.9675 43.8493 16.0391 42.016 14.2806 41.3553C11.1918 40.195 8.04 42.2584 7.78431 45.4983C7.50947 48.9671 8.00172 52.7784 7.78157 56.2837C7.52314 57.3398 6.13937 57.1908 6.11202 56.082C6.77519 50.9262 3.87228 42.3396 10.1266 39.8294C14.1644 38.2088 16.88 40.7176 19.2824 43.5595C21.0149 44.2202 24.1421 44.2013 25.4287 45.5647C26.8057 47.0242 26.8002 49.7835 24.2884 49.8147C22.8376 49.8323 20.725 49.7212 19.2606 49.598C17.9479 49.487 17.0372 48.6218 15.8545 48.148L15.8531 48.1466Z" fill="#1E1913"/>
<path d="M49.1661 48.1466C49.0704 48.0383 46.9442 49.3651 46.5723 49.468C45.7423 49.6969 44.822 49.5479 43.977 49.594C42.9761 49.6495 41.4843 49.8769 40.5258 49.8038C39.6643 49.7388 38.8248 49.181 38.7004 48.2915C38.4638 46.6018 39.5372 45.1951 41.1001 44.6697C42.2787 44.273 44.9287 44.0212 45.8079 43.5216C46.4273 43.1696 47.5403 41.5286 48.224 40.9343C52.2318 37.452 58.4779 40.0664 58.9086 45.2939C59.1944 48.7559 58.6994 52.5794 58.91 56.0793C58.8826 57.1881 57.4975 57.3371 57.2404 56.281C57.0216 52.7757 57.5111 48.9644 57.2377 45.4956C56.9355 41.6532 52.5613 39.6385 49.4806 42.0756C48.6438 42.7377 47.4296 44.6169 46.6912 45.019C45.6151 45.6053 42.9132 45.7759 41.5677 46.2741C41.353 46.354 41.1192 46.4434 40.9415 46.5882C40.6092 46.859 39.9747 48.0234 40.6311 48.148L45.8612 47.9313C46.7733 47.7445 49.3863 45.7881 50.1151 45.9059C50.6661 45.9952 50.8029 46.4732 50.8466 46.9484C51.1215 49.8675 50.6415 53.2103 50.833 56.174C50.6579 57.4129 49.1661 56.9471 49.1661 56.4949V48.1453V48.1466Z" fill="#1E1913"/>
<path d="M23.0823 30.4088L28.1676 26.8873H36.7464C37.6502 27.0308 37.7364 28.4172 36.3375 28.5458C33.8818 28.7733 31.0978 28.3468 28.6065 28.5675L22.6516 32.7335C22.2838 33.0734 21.406 32.5941 21.406 32.2244V28.5418H18.5249C17.6402 28.5418 16.5655 27.506 16.4794 26.626L16.4917 13.9776C16.6817 13.1205 17.1931 12.4612 18.0518 12.2039C18.9105 11.9467 22.3508 11.9399 23.3435 12.0496C24.4319 12.1701 24.7642 13.061 23.8453 13.6878C22.2537 13.8625 20.3941 13.5294 18.8367 13.7068C18.5413 13.7406 18.2227 13.853 18.1598 14.178L18.1776 26.4987C18.2077 26.6029 18.287 26.6625 18.3691 26.7248C18.9023 27.1337 21.6097 26.7099 22.4834 26.9035C22.6803 26.9468 23.0823 27.2813 23.0823 27.4519V30.4088Z" fill="#1E1913"/>
<path d="M12.4785 28.053C19.8991 27.1648 20.6607 37.8974 14.0072 38.592C6.61248 39.3623 5.85906 28.8464 12.4785 28.053ZM12.581 29.7102C8.10564 30.3574 8.79752 37.7214 13.9949 36.9185C18.3882 36.2402 17.6895 28.9696 12.581 29.7102Z" fill="#1E1913"/>
<path d="M51.0285 28.053C58.3794 27.2163 59.1451 37.8311 52.5599 38.5933C45.1721 39.449 44.2778 28.8207 51.0285 28.053ZM51.131 29.7102C49.0855 29.9878 47.6607 32.2258 48.1475 34.1673C48.894 37.1406 52.8594 38.0084 54.6998 35.5267C56.7071 32.8202 54.4647 29.258 51.131 29.7102Z" fill="#1E1913"/>
<path d="M19.385 50.3467L36.3362 50.3224C37.3959 50.4253 37.3973 51.8821 36.3362 51.9864H19.571C18.5345 51.8117 18.3663 50.7326 19.3864 50.3467H19.385Z" fill="#1E1913"/>
<path d="M42.0121 50.3467C42.4141 50.2574 45.2336 50.2574 45.6342 50.3467C46.5668 50.5539 46.5176 51.8266 45.5454 51.9782C45.0476 52.0554 42.4661 52.0622 42.0121 51.962C41.1493 51.7711 41.1466 50.5376 42.0121 50.3467Z" fill="#1E1913"/>
<path d="M38.4515 50.3467C39.0354 50.2181 40.1128 50.2547 40.3234 50.9438C40.6379 51.9715 38.8973 52.2395 38.2313 51.8686C37.6215 51.5287 37.7623 50.4984 38.4515 50.3467Z" fill="#1E1913"/>
<path d="M45.6794 14.8793C46.1484 15.345 45.8544 16.3158 45.1352 16.305L30.1489 16.3077C29.2751 16.1994 29.1521 15.1054 29.9192 14.7222L44.93 14.6383C45.1406 14.6397 45.5399 14.7398 45.6807 14.8807L45.6794 14.8793Z" fill="#1E1913"/>
<path d="M29.9656 18.5038L39.0586 18.4794C40.0513 18.5931 40.1019 20.0012 38.8467 20.1407C36.2131 20.4331 33.0518 19.9227 30.3622 20.1407C29.3476 20.1339 29.0536 18.8896 29.9656 18.5038Z" fill="#1E1913"/>
<path d="M40.7555 18.5024C41.3626 18.3264 42.7505 18.3494 42.8612 19.1794C43.0239 20.3965 40.5791 20.4317 40.3084 19.6289C40.1798 19.2484 40.3453 18.6216 40.7555 18.5038V18.5024Z" fill="#1E1913"/>
</svg>
