<svg width="65" height="65" viewBox="0 0 65 65" fill="none" xmlns="http://www.w3.org/2000/svg">
<rect width="65" height="65" rx="8" fill="#F1EFEB"/>
<path d="M31.9344 8.03598C36.8498 7.47528 39.7728 13.5965 41.1395 17.4657C45.9946 16.4 54.6026 16.4981 54.2117 23.5528C54.1903 23.9473 53.8881 25.1038 53.9249 25.2917C53.9535 25.4394 54.3352 25.6996 54.4556 25.8782C55.6549 27.6564 54.7771 30.1346 52.7583 30.7562C52.0561 30.9721 51.6213 30.8512 50.9426 30.8812L49.725 32.4445C52.0918 35.4659 55.4303 40.0558 53.8177 44.116C52.0041 48.6832 45.0342 48.2753 41.1405 47.4957L40.4301 49.3761C40.4209 49.6249 41.0027 50.2094 41.1629 50.5832C42.1172 52.7991 40.4893 55.2009 38.1286 55.0997C37.7632 55.0843 37.2151 54.8571 36.9569 54.9304C36.764 54.9851 36.0557 55.7048 35.7669 55.9021C29.9881 59.8611 25.4626 52.193 24.001 47.4957C20.1084 48.2794 13.1364 48.6801 11.3238 44.116C9.71224 40.0589 13.0538 35.467 15.4165 32.4445L14.105 30.779C11.482 31.508 9.1958 28.9802 10.2726 26.3904C10.441 25.9846 11.1156 25.2587 11.1411 25.0924C11.1942 24.7455 10.9615 24.1414 10.937 23.7542C10.4604 16.4785 18.9775 16.4062 24.0031 17.4667C25.2493 13.9714 27.7896 8.51097 31.9385 8.03701L31.9344 8.03598ZM39.7136 17.8157C38.7491 14.8769 36.2731 9.59004 32.7264 9.44857C28.9838 9.29884 26.4608 14.7675 25.4218 17.762C27.8335 18.4745 30.2473 19.2056 32.5356 20.2712C34.8718 19.3016 37.2437 18.3909 39.7136 17.8157ZM23.5877 18.8504C19.1918 18.0006 11.2126 17.7765 12.4639 24.5286C15.6686 24.0712 17.5731 27.614 15.341 30.0551L16.4035 31.3407C18.2549 29.6297 20.0614 27.867 22.1098 26.3904C22.4283 23.8451 22.8743 21.3131 23.5887 18.8514L23.5877 18.8504ZM41.5508 18.8504C42.2642 21.3111 42.7041 23.8451 43.0286 26.3894C45.0719 27.8743 46.8846 29.6266 48.735 31.3397L49.7046 30.0675C47.3765 27.8113 49.3137 23.8791 52.5266 24.6071L52.6256 24.5338C54.0392 17.8116 45.8905 17.9851 41.5508 18.8504ZM30.7321 21.0188C30.0289 20.8103 25.186 18.9949 24.9166 19.2645L23.7928 25.1482L30.7321 21.0199V21.0188ZM40.2219 19.2645C39.9759 19.0187 35.0647 20.7659 34.4064 21.0694L41.4477 25.1472L40.2209 19.2645H40.2219ZM41.6324 27.1298C38.7736 25.1224 35.7618 23.3546 32.6039 21.8666C29.3941 23.3215 26.3373 25.1121 23.4846 27.1834C23.1917 30.7139 23.158 34.3022 23.5071 37.8295C26.3658 39.8369 29.3777 41.6047 32.5356 43.0927C35.7424 41.6316 38.8032 39.8493 41.6549 37.7758C41.9478 34.2454 41.9815 30.6571 41.6324 27.1298ZM12.6394 25.998C10.8104 26.3791 11.1789 29.5884 13.214 29.4789C15.6319 29.3488 15.3665 25.4301 12.6394 25.998ZM53.0482 26.4235C51.5499 24.9809 49.1718 26.9976 50.4313 28.7096C51.9734 30.8079 54.8006 28.1107 53.0482 26.4235ZM21.9537 36.61V28.3493C21.3607 28.7231 17.4159 32.1957 17.4711 32.5168C18.8397 34.0182 20.3533 35.3678 21.9537 36.61ZM43.1848 36.61C44.78 35.3627 46.2967 34.0151 47.6674 32.5168C47.7225 32.1998 43.7757 28.7251 43.1848 28.3493V36.61ZM23.5877 46.1089C22.8743 43.6472 22.4283 41.1163 22.1088 38.5699C20.0604 37.0933 18.2549 35.3307 16.4025 33.6196C14.352 35.9265 11.187 40.6351 12.7496 43.8052C14.4367 47.2282 20.4962 46.6675 23.5867 46.1089H23.5877ZM41.5508 46.1089C44.5953 46.6758 50.7558 47.22 52.3878 43.8052C53.93 40.5783 50.8048 35.9678 48.735 33.6196C46.8856 35.3327 45.0719 37.0861 43.0286 38.5699C42.7102 41.1153 42.2642 43.6472 41.5508 46.1089ZM30.7321 43.9405L23.6898 39.8121L24.9166 45.6948C25.186 45.9644 30.0289 44.149 30.7321 43.9405ZM41.3456 39.8111L34.4064 43.9394C35.1096 44.148 39.9525 45.9633 40.2219 45.6938L41.3456 39.8101V39.8111ZM39.7136 47.1436C37.2447 46.5622 34.8738 45.6546 32.5356 44.6881C30.2453 45.7434 27.8396 46.5003 25.4228 47.1962C26.8262 51.4061 30.7137 58.5786 35.7903 54.063L35.8261 53.9226C34.7442 52.5616 34.9259 50.5986 36.2425 49.4649C37.0835 48.742 38.0419 48.6264 39.1053 48.7503L39.7136 47.1436ZM38.0582 50.1608C35.8944 50.3963 36.119 53.9515 38.5307 53.6376C40.723 53.3526 40.3771 49.9078 38.0582 50.1608Z" fill="#1E1913"/>
<path d="M31.8323 26.8293C39.3146 25.9113 40.5097 37.3205 33.2214 38.1486C25.8555 38.985 24.6553 27.7101 31.8323 26.8293ZM32.0365 28.2749C26.7741 28.8924 27.4549 37.1253 32.9254 36.7112C38.3705 36.2982 37.75 27.6037 32.0365 28.2749Z" fill="#1E1913"/>
<path d="M33.2133 34.1618C33.4215 33.8995 33.8369 33.8313 34.0839 33.3398C34.3645 32.7801 34.2349 31.4636 35.2535 31.7775C36.2721 32.0914 35.4893 33.8706 35.0616 34.4333C34.8616 34.6956 34.2298 35.2986 33.9236 35.3554C33.3082 35.4711 32.8213 34.6564 33.2133 34.1618Z" fill="#1E1913"/>
</svg>
