<svg width="65" height="65" viewBox="0 0 65 65" fill="none" xmlns="http://www.w3.org/2000/svg">
<rect width="65" height="65" rx="8" fill="#F1EFEB"/>
<path d="M8 50.494L10.6247 47.8069C11.1569 46.0367 11.388 44.1641 11.9115 42.3939C11.9852 42.1453 12.0214 41.9192 12.1676 41.6931C12.3624 41.3921 15.2133 38.5313 15.5118 38.3377C15.8367 38.1266 17.0572 37.9004 17.1484 37.768C17.0135 37.0497 16.7386 36.4788 16.8148 35.7168C17.1384 32.47 21.4671 31.4481 23.2148 34.179L23.3547 34.2202C24.0581 33.7367 26.2568 30.9784 26.9102 30.8747C27.1525 30.836 27.3924 30.8985 27.5723 31.0646L31.9809 35.5581C32.2146 36.6662 31.094 36.4651 30.4968 36.8611C28.2806 38.3302 30.5855 41.6731 32.7392 40.0604C33.7212 39.3246 33.174 37.8455 34.5157 38.0941L39.4428 42.9286C39.8313 43.3871 39.5965 43.7044 39.2879 44.0991C38.7532 44.7825 37.4515 45.9805 36.7731 46.6313C36.5133 46.8812 35.1653 48.1954 34.9929 48.2504C34.001 48.5664 34.0622 47.2797 33.6487 46.7126C32.2458 44.7912 29.3163 46.5739 30.3094 48.7113C30.9428 50.0742 32.5743 49.3559 32.4594 50.7838L28.819 54.6115C28.1644 55.0262 27.5785 56.2742 26.709 55.6608L22.6077 51.6483C21.2272 53.2898 19.4258 54.1168 17.2846 54.2742L14.5074 57H13.9328C13.4943 56.7027 13.2981 56.3242 13.563 55.8157L16.3726 52.98C16.896 52.6202 17.7743 52.6976 18.4314 52.5502C19.7431 52.2567 20.7125 51.5259 21.5883 50.5402C21.5883 50.4453 20.419 49.4734 20.2728 49.1785C19.8506 48.3291 20.8849 47.652 21.5421 48.2916L27.2724 53.9306L30.2982 50.92L29.4862 50.2067C26.383 46.1491 32.1983 41.9342 35.1341 46.0892L37.7238 43.5058L37.6763 43.2647L34.6531 40.2553L33.9398 41.0673C29.8609 44.2516 25.6009 38.3964 29.8222 35.4195L27.0963 32.6936L23.5109 36.2852C22.2729 37.0122 22.3666 35.773 21.9955 35.1134C20.6638 32.7411 17.1147 35.0734 18.7225 37.2383C19.3296 38.0566 20.9324 37.8954 20.715 38.9398C20.6039 39.477 18.7712 40.8049 18.4351 41.402L24.6815 39.3133C25.6072 39.5007 25.6759 41.6294 25.4735 42.364C24.9601 44.2266 21.5608 45.4458 19.9817 46.2991C19.9243 47.8419 19.2322 49.8756 17.9479 50.8225C17.5044 51.1486 16.7898 51.4322 16.4975 50.7588C16.1502 49.9581 17.0972 49.6045 17.5169 49.0511C18.3577 47.9468 18.3989 46.6801 18.6188 45.3684C19.5782 44.6875 20.725 44.2915 21.7519 43.7169C22.6864 43.1935 24.4179 42.4089 23.9794 41.1197L15.2732 44.0467C14.6923 43.9342 14.5574 43.2834 14.8098 42.8037L18.5301 39.0585C18.4689 38.9336 18.2677 39.0547 18.169 39.0797C17.3108 39.3008 16.5138 39.5145 15.8466 40.1078C15.0459 40.8199 14.3263 41.8205 13.4768 42.5239L11.9277 48.7263L9.1868 51.4409C8.67835 51.7045 8.29982 51.5096 8.0025 51.0711V50.4965L8 50.494Z" fill="#1E1913"/>
<path d="M51.0685 8C51.507 8.29732 51.7031 8.67584 51.4383 9.18428L48.7236 11.9251L42.4823 13.4841L39.6739 16.2987L39.1992 17.809L42.5135 14.616C44.1026 14.1975 43.734 15.3393 43.4579 16.3262C42.7421 18.8846 41.7839 21.3918 41.0219 23.9378C42.3249 24.5586 43.1931 22.681 43.714 21.7503C44.0126 21.2169 45.0545 18.8171 45.3831 18.6335C45.7316 18.4399 46.4687 18.4911 46.8797 18.4074C47.6392 18.2525 48.4263 17.9889 49.0497 17.5142C49.5943 17.0994 50.0753 15.9939 50.8748 16.5673C51.6744 17.1407 50.6175 18.255 50.1028 18.6622C49.0109 19.5279 47.668 19.8303 46.3225 20.0501C45.3943 21.503 44.3649 24.6248 42.7109 25.3394C41.7927 25.7367 39.5402 25.7441 39.2916 24.5099L41.163 18.145L32.4069 26.9022C32.9666 27.6955 36.5632 30.6824 36.6719 31.347C36.8518 32.44 34.8018 32.0965 34.3933 33.4844C33.6987 35.8492 36.6394 37.1459 37.9012 35.2696C38.261 34.7349 38.1798 33.5881 39.1292 33.7592C39.7551 33.8729 42.3299 37.1397 43.1581 37.5657C44.0089 37.006 46.796 33.5394 47.5231 33.3982C48.5812 33.1921 48.2739 34.9922 49.4182 35.5369C51.3496 36.4576 53.1073 34.2739 51.8743 32.6025C51.3046 31.8304 49.7168 31.9941 49.9354 30.9435C50.0628 30.3288 53.7007 27.3332 53.6445 27.0109L48.1964 21.543C47.6767 20.8534 48.2027 20.0214 49.0634 20.2937C49.4494 20.4162 49.9866 21.2531 50.3464 21.5005C50.4476 21.5692 50.4488 21.6192 50.5875 21.548C50.9036 21.3843 51.9305 20.0764 52.1079 19.7116C52.6538 18.5873 52.5589 17.4792 52.9799 16.3724L55.8157 13.5628C56.3241 13.2993 56.7027 13.4941 57 13.9326V14.5073L54.2741 17.2843C54.1192 19.4705 53.2347 21.3081 51.5469 22.691L55.2323 26.3738C55.4222 26.6186 55.6433 26.9197 55.5259 27.2407L52.1229 30.7373C52.0804 30.9285 52.5926 31.1121 52.7413 31.257C54.5215 32.9997 53.953 36.1041 51.6207 37.0272C49.9316 37.6956 48.2751 37.016 47.2857 35.5656L43.6054 39.2521C43.323 39.5007 42.9945 39.5245 42.6909 39.2971L39.3416 35.9492C38.3372 37.4008 36.7531 38.0641 35.0304 37.482C32.3632 36.5813 31.9272 32.7011 34.3508 31.2645L34.4045 31.0234L30.6742 27.2907L30.6567 26.4962L36.8081 20.3012L38.296 15.5679C39.3991 14.7159 40.9881 12.3473 42.2399 11.9513C44.0051 11.3929 46.0239 11.198 47.8054 10.6259L50.4951 8H51.0697H51.0685Z" fill="#1E1913"/>
</svg>
